<svg width="1796" height="1068" fill="none" xmlns="http://www.w3.org/2000/svg"><g style="mix-blend-mode:soft-light" opacity=".82"><path d="M0 0h2v1068H0V0Z" fill="url(#a)"/><path d="M78 0h2v1068h-2V0Z" fill="url(#b)"/><path d="M156 0h2v1068h-2V0Z" fill="url(#c)"/><path d="M234 0h2v1068h-2V0Z" fill="url(#d)"/><path d="M312 0h2v1068h-2V0Z" fill="url(#e)"/><path d="M390 0h2v1068h-2V0Z" fill="url(#f)"/><path d="M468 0h2v1068h-2V0Z" fill="url(#g)"/><path d="M546 0h2v1068h-2V0Z" fill="url(#h)"/><path d="M624 0h2v1068h-2V0Z" fill="url(#i)"/><path d="M702 0h2v1068h-2V0Z" fill="url(#j)"/><path d="M780 0h2v1068h-2V0Z" fill="url(#k)"/><path d="M858 0h2v1068h-2V0Z" fill="url(#l)"/><path d="M936 0h2v1068h-2V0Z" fill="url(#m)"/><path d="M1014 0h2v1068h-2V0Z" fill="url(#n)"/><path d="M1092 0h2v1068h-2V0Z" fill="url(#o)"/><path d="M1170 0h2v1068h-2V0Z" fill="url(#p)"/><path d="M1248 0h2v1068h-2V0Z" fill="url(#q)"/><path d="M1326 0h2v1068h-2V0Z" fill="url(#r)"/><path d="M1404 0h2v1068h-2V0Z" fill="url(#s)"/><path d="M1482 0h2v1068h-2V0Z" fill="url(#t)"/><path d="M1560 0h2v1068h-2V0Z" fill="url(#u)"/><path d="M1638 0h2v1068h-2V0Z" fill="url(#v)"/><path d="M1716 0h2v1068h-2V0Z" fill="url(#w)"/><path d="M1794 0h2v1068h-2V0Z" fill="url(#x)"/></g><defs><linearGradient id="a" x1="1795" y1="18.538" x2="1795" y2="1068" gradientUnits="userSpaceOnUse"><stop stop-color="#fff" stop-opacity="0"/><stop offset=".234" stop-color="#fff"/><stop offset=".409" stop-color="#fff"/><stop offset="1" stop-color="#fff" stop-opacity="0"/></linearGradient><linearGradient id="b" x1="1795" y1="18.538" x2="1795" y2="1068" gradientUnits="userSpaceOnUse"><stop stop-color="#fff" stop-opacity="0"/><stop offset=".234" stop-color="#fff"/><stop offset=".409" stop-color="#fff"/><stop offset="1" stop-color="#fff" stop-opacity="0"/></linearGradient><linearGradient id="c" x1="1795" y1="18.538" x2="1795" y2="1068" gradientUnits="userSpaceOnUse"><stop stop-color="#fff" stop-opacity="0"/><stop offset=".234" stop-color="#fff"/><stop offset=".409" stop-color="#fff"/><stop offset="1" stop-color="#fff" stop-opacity="0"/></linearGradient><linearGradient id="d" x1="1795" y1="18.538" x2="1795" y2="1068" gradientUnits="userSpaceOnUse"><stop stop-color="#fff" stop-opacity="0"/><stop offset=".234" stop-color="#fff"/><stop offset=".409" stop-color="#fff"/><stop offset="1" stop-color="#fff" stop-opacity="0"/></linearGradient><linearGradient id="e" x1="1795" y1="18.538" x2="1795" y2="1068" gradientUnits="userSpaceOnUse"><stop stop-color="#fff" stop-opacity="0"/><stop offset=".234" stop-color="#fff"/><stop offset=".409" stop-color="#fff"/><stop offset="1" stop-color="#fff" stop-opacity="0"/></linearGradient><linearGradient id="f" x1="1795" y1="18.538" x2="1795" y2="1068" gradientUnits="userSpaceOnUse"><stop stop-color="#fff" stop-opacity="0"/><stop offset=".234" stop-color="#fff"/><stop offset=".409" stop-color="#fff"/><stop offset="1" stop-color="#fff" stop-opacity="0"/></linearGradient><linearGradient id="g" x1="1795" y1="18.538" x2="1795" y2="1068" gradientUnits="userSpaceOnUse"><stop stop-color="#fff" stop-opacity="0"/><stop offset=".234" stop-color="#fff"/><stop offset=".409" stop-color="#fff"/><stop offset="1" stop-color="#fff" stop-opacity="0"/></linearGradient><linearGradient id="h" x1="1795" y1="18.538" x2="1795" y2="1068" gradientUnits="userSpaceOnUse"><stop stop-color="#fff" stop-opacity="0"/><stop offset=".234" stop-color="#fff"/><stop offset=".409" stop-color="#fff"/><stop offset="1" stop-color="#fff" stop-opacity="0"/></linearGradient><linearGradient id="i" x1="1795" y1="18.538" x2="1795" y2="1068" gradientUnits="userSpaceOnUse"><stop stop-color="#fff" stop-opacity="0"/><stop offset=".234" stop-color="#fff"/><stop offset=".409" stop-color="#fff"/><stop offset="1" stop-color="#fff" stop-opacity="0"/></linearGradient><linearGradient id="j" x1="1795" y1="18.538" x2="1795" y2="1068" gradientUnits="userSpaceOnUse"><stop stop-color="#fff" stop-opacity="0"/><stop offset=".234" stop-color="#fff"/><stop offset=".409" stop-color="#fff"/><stop offset="1" stop-color="#fff" stop-opacity="0"/></linearGradient><linearGradient id="k" x1="1795" y1="18.538" x2="1795" y2="1068" gradientUnits="userSpaceOnUse"><stop stop-color="#fff" stop-opacity="0"/><stop offset=".234" stop-color="#fff"/><stop offset=".409" stop-color="#fff"/><stop offset="1" stop-color="#fff" stop-opacity="0"/></linearGradient><linearGradient id="l" x1="1795" y1="18.538" x2="1795" y2="1068" gradientUnits="userSpaceOnUse"><stop stop-color="#fff" stop-opacity="0"/><stop offset=".234" stop-color="#fff"/><stop offset=".409" stop-color="#fff"/><stop offset="1" stop-color="#fff" stop-opacity="0"/></linearGradient><linearGradient id="m" x1="1795" y1="18.538" x2="1795" y2="1068" gradientUnits="userSpaceOnUse"><stop stop-color="#fff" stop-opacity="0"/><stop offset=".234" stop-color="#fff"/><stop offset=".409" stop-color="#fff"/><stop offset="1" stop-color="#fff" stop-opacity="0"/></linearGradient><linearGradient id="n" x1="1795" y1="18.538" x2="1795" y2="1068" gradientUnits="userSpaceOnUse"><stop stop-color="#fff" stop-opacity="0"/><stop offset=".234" stop-color="#fff"/><stop offset=".409" stop-color="#fff"/><stop offset="1" stop-color="#fff" stop-opacity="0"/></linearGradient><linearGradient id="o" x1="1795" y1="18.538" x2="1795" y2="1068" gradientUnits="userSpaceOnUse"><stop stop-color="#fff" stop-opacity="0"/><stop offset=".234" stop-color="#fff"/><stop offset=".409" stop-color="#fff"/><stop offset="1" stop-color="#fff" stop-opacity="0"/></linearGradient><linearGradient id="p" x1="1795" y1="18.538" x2="1795" y2="1068" gradientUnits="userSpaceOnUse"><stop stop-color="#fff" stop-opacity="0"/><stop offset=".234" stop-color="#fff"/><stop offset=".409" stop-color="#fff"/><stop offset="1" stop-color="#fff" stop-opacity="0"/></linearGradient><linearGradient id="q" x1="1795" y1="18.538" x2="1795" y2="1068" gradientUnits="userSpaceOnUse"><stop stop-color="#fff" stop-opacity="0"/><stop offset=".234" stop-color="#fff"/><stop offset=".409" stop-color="#fff"/><stop offset="1" stop-color="#fff" stop-opacity="0"/></linearGradient><linearGradient id="r" x1="1795" y1="18.538" x2="1795" y2="1068" gradientUnits="userSpaceOnUse"><stop stop-color="#fff" stop-opacity="0"/><stop offset=".234" stop-color="#fff"/><stop offset=".409" stop-color="#fff"/><stop offset="1" stop-color="#fff" stop-opacity="0"/></linearGradient><linearGradient id="s" x1="1795" y1="18.538" x2="1795" y2="1068" gradientUnits="userSpaceOnUse"><stop stop-color="#fff" stop-opacity="0"/><stop offset=".234" stop-color="#fff"/><stop offset=".409" stop-color="#fff"/><stop offset="1" stop-color="#fff" stop-opacity="0"/></linearGradient><linearGradient id="t" x1="1795" y1="18.538" x2="1795" y2="1068" gradientUnits="userSpaceOnUse"><stop stop-color="#fff" stop-opacity="0"/><stop offset=".234" stop-color="#fff"/><stop offset=".409" stop-color="#fff"/><stop offset="1" stop-color="#fff" stop-opacity="0"/></linearGradient><linearGradient id="u" x1="1795" y1="18.538" x2="1795" y2="1068" gradientUnits="userSpaceOnUse"><stop stop-color="#fff" stop-opacity="0"/><stop offset=".234" stop-color="#fff"/><stop offset=".409" stop-color="#fff"/><stop offset="1" stop-color="#fff" stop-opacity="0"/></linearGradient><linearGradient id="v" x1="1795" y1="18.538" x2="1795" y2="1068" gradientUnits="userSpaceOnUse"><stop stop-color="#fff" stop-opacity="0"/><stop offset=".234" stop-color="#fff"/><stop offset=".409" stop-color="#fff"/><stop offset="1" stop-color="#fff" stop-opacity="0"/></linearGradient><linearGradient id="w" x1="1795" y1="18.538" x2="1795" y2="1068" gradientUnits="userSpaceOnUse"><stop stop-color="#fff" stop-opacity="0"/><stop offset=".234" stop-color="#fff"/><stop offset=".409" stop-color="#fff"/><stop offset="1" stop-color="#fff" stop-opacity="0"/></linearGradient><linearGradient id="x" x1="1795" y1="18.538" x2="1795" y2="1068" gradientUnits="userSpaceOnUse"><stop stop-color="#fff" stop-opacity="0"/><stop offset=".234" stop-color="#fff"/><stop offset=".409" stop-color="#fff"/><stop offset="1" stop-color="#fff" stop-opacity="0"/></linearGradient></defs></svg>