<svg width="415" height="429" fill="none" xmlns="http://www.w3.org/2000/svg"><path fill-rule="evenodd" clip-rule="evenodd" d="M331.364 139.608c-24.945-43.332-70.524-69.822-122.627-69.822-78.876 0-140.378 62.7-140.378 144.714s61.502 151.023 140.378 151.023c52.103 0 97.682-31.537 122.627-74.869h71.494C373.312 371.522 296.875 429 208.737 429 94.804 429 0 332.965 0 214.5S94.804 0 208.737 0c88.138 0 164.575 58.74 194.121 139.608h-71.494Zm78.93 49.657v52.994H275.875c-10.525 28.051-36.87 47.947-67.728 47.947-40.117 0-72.638-33.612-72.638-75.075s32.521-75.075 72.638-75.075c31.322 0 58.011 20.491 68.209 49.209h133.938Z" fill="url(#a)"/><path d="M349.682 214.5c0 82.314-64.352 150.15-142.204 150.15-5.513 0-10.959.639-16.318 0v63.696c5.384.433 10.826.654 16.318.654 118.892 0 209.809-97.717 207.478-214.5 0-8.056-.429-16.008-1.266-23.833h-65.84a155.036 155.036 0 0 1 1.832 23.833Z" fill="url(#b)"/><defs><radialGradient id="a" cx="0" cy="0" r="1" gradientUnits="userSpaceOnUse" gradientTransform="matrix(-207.5 0 0 -214.5 207.5 214.5)"><stop stop-color="#F2E191"/><stop offset="1" stop-color="#E8C25F"/></radialGradient><radialGradient id="b" cx="0" cy="0" r="1" gradientUnits="userSpaceOnUse" gradientTransform="matrix(-207.5 0 0 -214.5 207.5 214.5)"><stop stop-color="#F2E191"/><stop offset="1" stop-color="#E8C25F"/></radialGradient></defs></svg>