<svg width="230" height="236" fill="none" xmlns="http://www.w3.org/2000/svg"><path fill-rule="evenodd" clip-rule="evenodd" d="M183.098 76.744c-13.715-23.82-38.773-38.382-67.418-38.382-43.364 0-77.177 34.467-77.177 79.552 0 45.084 33.813 83.019 77.177 83.019 28.645 0 53.703-17.336 67.418-41.156h39.305c-16.243 44.453-58.266 76.05-106.723 76.05C53.042 235.827.921 183.035.921 117.914.921 52.792 53.042 0 115.68 0c48.457 0 90.48 32.29 106.723 76.744h-39.305Zm43.394 27.298v29.131h-73.901c-5.786 15.42-20.27 26.357-37.235 26.357-22.056 0-39.935-18.477-39.935-41.27 0-22.792 17.88-41.27 39.935-41.27 17.22 0 31.893 11.265 37.5 27.052h73.636Z" fill="url(#a)"/><path d="M193.169 117.914c0 45.249-35.38 82.539-78.181 82.539-3.031 0-6.025.351-8.972 0v35.015c2.961.238 5.953.359 8.972.359 65.364 0 115.349-53.716 114.067-117.913 0-4.429-.236-8.8-.696-13.102h-36.197a85.286 85.286 0 0 1 1.007 13.102Z" fill="url(#b)"/><defs><linearGradient id="a" x1="229.079" y1="0" x2="-10.387" y2="12.104" gradientUnits="userSpaceOnUse"><stop stop-color="#E8C25F"/><stop offset=".505" stop-color="#F2E191"/><stop offset="1" stop-color="#D3A647"/></linearGradient><linearGradient id="b" x1="229.079" y1="0" x2="-10.387" y2="12.104" gradientUnits="userSpaceOnUse"><stop stop-color="#E8C25F"/><stop offset=".505" stop-color="#F2E191"/><stop offset="1" stop-color="#D3A647"/></linearGradient></defs></svg>