<svg width="997" height="543" fill="none" xmlns="http://www.w3.org/2000/svg"><g filter="url(#a)"><path d="M19.965 88.59C18.58 42.641 58.468 4.554 104.31 8.002c81.631 6.14 216.948 13.573 393.69 13.573 178.425 0 314.631-7.575 396.007-13.748 45.047-3.417 84.109 33.283 82.69 78.437-1.577 50.122-3.124 116.762-3.124 185.236 0 69.888 1.612 137.866 3.221 188.32 1.406 44.081-35.741 80.249-79.781 77.883-81.486-4.379-219.574-9.88-399.013-9.88-177.736 0-314.903 5.397-396.678 9.755-44.828 2.388-82.842-35.105-81.454-79.975 1.361-44.009 2.559-105.602 2.559-186.103 0-78.572-1.141-139.132-2.462-182.91Z" fill="url(#b)"/><path d="M19.965 88.59C18.58 42.641 58.468 4.554 104.31 8.002c81.631 6.14 216.948 13.573 393.69 13.573 178.425 0 314.631-7.575 396.007-13.748 45.047-3.417 84.109 33.283 82.69 78.437-1.577 50.122-3.124 116.762-3.124 185.236 0 69.888 1.612 137.866 3.221 188.32 1.406 44.081-35.741 80.249-79.781 77.883-81.486-4.379-219.574-9.88-399.013-9.88-177.736 0-314.903 5.397-396.678 9.755-44.828 2.388-82.842-35.105-81.454-79.975 1.361-44.009 2.559-105.602 2.559-186.103 0-78.572-1.141-139.132-2.462-182.91Z" fill="url(#c)"/><path d="M21.964 88.53C20.614 43.77 59.501 6.638 104.16 9.997 185.835 16.14 321.202 23.575 498 23.575c178.481 0 314.738-7.577 396.159-13.753 43.883-3.33 81.92 32.437 80.539 76.38-1.577 50.134-3.125 116.796-3.125 185.298 0 69.917 1.613 137.917 3.222 188.383 1.369 42.904-34.799 78.126-77.675 75.823-81.516-4.381-219.641-9.883-399.12-9.883-177.776 0-314.979 5.398-396.784 9.758-43.648 2.325-80.701-34.206-79.35-77.916 1.363-44.03 2.56-105.644 2.56-186.165 0-78.592-1.14-139.172-2.462-182.97Z" stroke="url(#d)" stroke-opacity=".64" stroke-width="4" style="mix-blend-mode:soft-light"/></g><defs><linearGradient id="b" x1="25.042" y1="4.398" x2="1019.94" y2="439.906" gradientUnits="userSpaceOnUse"><stop stop-color="#FFDD28"/><stop offset=".527" stop-color="#FFE86F"/><stop offset="1" stop-color="#FFDD28"/></linearGradient><linearGradient id="c" x1="980" y1="0" x2="-25.712" y2="93.282" gradientUnits="userSpaceOnUse"><stop stop-color="#E8C25F"/><stop offset=".505" stop-color="#F2E191"/><stop offset="1" stop-color="#D3A647"/></linearGradient><radialGradient id="d" cx="0" cy="0" r="1" gradientUnits="userSpaceOnUse" gradientTransform="matrix(-482.00215 -271.09571 480.13113 -853.66246 980 543)"><stop stop-color="#fff"/><stop offset="1" stop-color="#D8AF53"/></radialGradient><filter id="a" x="-54.169" y="-35.394" width="1105" height="678.206" filterUnits="userSpaceOnUse" color-interpolation-filters="sRGB"><feFlood flood-opacity="0" result="BackgroundImageFix"/><feColorMatrix in="SourceAlpha" values="0 0 0 0 0 0 0 0 0 0 0 0 0 0 0 0 0 0 127 0" result="hardAlpha"/><feOffset dy="31"/><feGaussianBlur stdDeviation="37"/><feComposite in2="hardAlpha" operator="out"/><feColorMatrix values="0 0 0 0 0 0 0 0 0 0 0 0 0 0 0 0 0 0 0.77 0"/><feBlend in2="BackgroundImageFix" result="effect1_dropShadow_228_180"/><feBlend in="SourceGraphic" in2="effect1_dropShadow_228_180" result="shape"/></filter></defs></svg>