<svg width="244" height="251" fill="none" xmlns="http://www.w3.org/2000/svg"><g opacity=".83" filter="url(#a)"><path fill-rule="evenodd" clip-rule="evenodd" d="M194.682 82.084c-14.615-25.27-41.317-40.719-71.842-40.719-46.21 0-82.241 36.566-82.241 84.394 0 47.829 36.03 88.074 82.241 88.074 30.525 0 57.227-18.392 71.842-43.662h41.885c-17.31 47.16-62.091 80.68-113.727 80.68C56.091 250.851.55 194.846.55 125.759.55 56.673 56.091.668 122.84.668c51.636 0 96.417 34.256 113.727 81.416h-41.885Zm48.231 28.959.401 5.286-2.391 25.619h-78.75c-6.166 16.358-21.601 27.962-39.679 27.962-23.503 0-42.555-19.602-42.555-43.782 0-24.181 19.052-43.782 42.555-43.782 18.35 0 33.987 11.95 39.961 28.697h80.458Z" fill="url(#b)"/><path d="M205.414 125.759c0 48.004-37.702 87.565-83.312 87.565-3.23 0-6.42.372-9.56 0v37.146c3.155.252 6.343.381 9.56.381 69.654 0 122.918-56.986 121.553-125.092 0-4.698-.252-9.335-.742-13.899H204.34a90.011 90.011 0 0 1 1.074 13.899Z" fill="url(#c)"/></g><defs><linearGradient id="b" x1="32.844" y1="33.333" x2="183.733" y2="180.139" gradientUnits="userSpaceOnUse"><stop stop-color="#101015"/><stop offset=".438" stop-color="#3C3B3A"/><stop offset="1" stop-color="#101015"/></linearGradient><linearGradient id="c" x1="32.844" y1="33.333" x2="183.733" y2="180.139" gradientUnits="userSpaceOnUse"><stop stop-color="#101015"/><stop offset=".438" stop-color="#3C3B3A"/><stop offset="1" stop-color="#101015"/></linearGradient><filter id="a" x="-39.563" y="-39.445" width="323.357" height="330.41" filterUnits="userSpaceOnUse" color-interpolation-filters="sRGB"><feFlood flood-opacity="0" result="BackgroundImageFix"/><feGaussianBlur in="BackgroundImageFix" stdDeviation="20.057"/><feComposite in2="SourceAlpha" operator="in" result="effect1_backgroundBlur_228_948"/><feBlend in="SourceGraphic" in2="effect1_backgroundBlur_228_948" result="shape"/></filter></defs></svg>