<svg width="114" height="36" fill="none" xmlns="http://www.w3.org/2000/svg"><path fill-rule="evenodd" clip-rule="evenodd" d="M27.946 11.715C25.842 8.08 22 5.856 17.604 5.856 10.952 5.856 5.765 11.118 5.765 18c0 6.882 5.187 12.673 11.84 12.673 4.394 0 8.238-2.646 10.341-6.282h6.03C31.484 31.177 25.038 36 17.604 36 7.996 36 0 27.941 0 18S7.995 0 17.604 0c7.434 0 13.88 4.93 16.372 11.715h-6.03Zm6.657 4.167v4.447H23.267c-.888 2.354-3.11 4.024-5.712 4.024-3.384 0-6.127-2.82-6.127-6.3s2.743-6.3 6.127-6.3c2.641 0 4.892 1.72 5.752 4.13h11.296Z" fill="url(#a)"/><path d="M29.491 18c0 6.907-5.427 12.6-11.993 12.6-.465 0-.924.054-1.376 0v5.345c.454.036.913.055 1.376.055 10.027 0 17.695-8.2 17.498-18 0-.676-.036-1.343-.107-2h-5.552c.101.65.154 1.318.154 2Z" fill="url(#b)"/><path d="M50.88 15.304c-1.003 0-1.888-.165-2.656-.496a5.853 5.853 0 0 1-1.92-1.36 6.102 6.102 0 0 1-1.168-1.936 6.729 6.729 0 0 1-.384-2.256v-.352c0-.736.128-1.456.384-2.16a6.018 6.018 0 0 1 1.12-1.904 5.44 5.44 0 0 1 1.84-1.344c.736-.341 1.579-.512 2.528-.512 1.024 0 1.93.192 2.72.576.79.373 1.424.901 1.904 1.584.48.672.763 1.456.848 2.352h-2.288a2.503 2.503 0 0 0-.56-1.28 2.889 2.889 0 0 0-1.136-.832 3.74 3.74 0 0 0-1.488-.288 3.74 3.74 0 0 0-1.488.288c-.437.192-.81.464-1.12.816-.31.352-.55.773-.72 1.264-.16.49-.24 1.035-.24 1.632 0 .65.09 1.232.272 1.744.181.512.437.95.768 1.312.33.352.73.624 1.2.816.47.181.997.272 1.584.272.779 0 1.461-.16 2.048-.48.587-.33 1.013-.757 1.28-1.28l-.4 1.84v-3.008h2.096v2.592c-.501.757-1.184 1.35-2.048 1.776-.864.416-1.856.624-2.976.624Zm-.368-4.544V9.064h6.368v1.696h-6.368ZM58.785 15V3.32h2.272V15h-2.273Zm5.186 0V3.24h2.272V15h-2.272Zm7.136 0-3.584-5.088h2.544L73.763 15h-2.656Zm-5.536-3.904v-1.84h2.976c.416 0 .774-.085 1.072-.256.31-.17.55-.41.72-.72.17-.31.256-.661.256-1.056a2.18 2.18 0 0 0-.256-1.072 1.8 1.8 0 0 0-.72-.72c-.298-.17-.656-.256-1.072-.256h-2.976V3.24h2.736c.939 0 1.75.139 2.432.416.694.277 1.227.699 1.6 1.264.374.565.56 1.275.56 2.128v.256c0 .864-.192 1.573-.576 2.128-.373.555-.901.97-1.584 1.248-.682.277-1.493.416-2.432.416h-2.736ZM74.335 15l3.984-11.68h3.712L86.127 15H83.79L80.319 4.872l.816.352h-2l.832-.352L76.607 15h-2.272Zm2.784-3.104.72-1.92h4.736l.704 1.92h-6.16ZM87.862 15V3.32h2.272V15h-2.272Zm1.952-4.864v-1.92l4.672-.016v1.92l-4.672.016Zm0-4.896V3.32h4.896v1.92h-4.896ZM96.815 15V3.32h2.272V15h-2.272Zm1.952-4.864v-1.92l4.672-.016v1.92l-4.672.016Zm0-4.896V3.32h4.896v1.92h-4.896Zm7.001 9.76V3.32h2.224V15h-2.224Zm1.904 0v-1.92h5.296V15h-5.296Zm0-4.976v-1.92h4.88v1.92h-4.88Zm0-4.784V3.32h5.168v1.92h-5.168ZM45.44 31V19.32h2.272V31H45.44Zm1.952-4.864v-1.92l4.672-.016v1.92l-4.672.016Zm0-4.896v-1.92h4.896v1.92h-4.896Zm11.817 10.064c-1.088 0-2.005-.208-2.752-.624a4.214 4.214 0 0 1-1.712-1.744c-.384-.757-.576-1.643-.576-2.656v-6.96h2.272v7.088c0 .555.107 1.045.32 1.472.213.416.523.741.928.976.416.224.923.336 1.52.336.587 0 1.083-.112 1.488-.336.416-.235.725-.56.928-.976.214-.416.32-.907.32-1.472V19.32h2.272v6.96c0 1.013-.192 1.899-.576 2.656a4.016 4.016 0 0 1-1.68 1.744c-.746.416-1.664.624-2.752.624ZM66.877 31V19.32h3.729l4.912 9.792h.528l-.32.288V19.32h2.144V31h-3.745l-4.912-9.792h-.543l.32-.288V31h-2.112Zm15.828.064v-2.112h2.416c.608 0 1.146-.09 1.616-.272a3.46 3.46 0 0 0 1.216-.8c.33-.341.58-.741.751-1.2.182-.47.273-.987.273-1.552 0-.587-.091-1.11-.273-1.568-.17-.47-.42-.87-.751-1.2a3.214 3.214 0 0 0-1.216-.752c-.47-.17-1.008-.256-1.616-.256h-2.416V19.24h2.272c1.055 0 1.978.155 2.767.464.79.31 1.446.736 1.969 1.28a5.15 5.15 0 0 1 1.168 1.84c.266.683.4 1.392.4 2.128v.352c0 .704-.134 1.397-.4 2.08a5.509 5.509 0 0 1-1.168 1.856c-.523.555-1.18.997-1.968 1.328-.79.33-1.713.496-2.769.496h-2.272Zm-1.953 0V19.24h2.273v11.824h-2.273Z" fill="#fff"/><defs><linearGradient id="a" x1="35" y1="0" x2="-1.734" y2="1.866" gradientUnits="userSpaceOnUse"><stop stop-color="#E8C25F"/><stop offset=".505" stop-color="#F2E191"/><stop offset="1" stop-color="#D3A647"/></linearGradient><linearGradient id="b" x1="35" y1="0" x2="-1.734" y2="1.866" gradientUnits="userSpaceOnUse"><stop stop-color="#E8C25F"/><stop offset=".505" stop-color="#F2E191"/><stop offset="1" stop-color="#D3A647"/></linearGradient></defs></svg>