<svg width="58" height="58" fill="none" xmlns="http://www.w3.org/2000/svg"><circle cx="29" cy="29" r="29" fill="url(#a)"/><circle cx="29" cy="29" r="29" fill="url(#b)"/><g clip-path="url(#c)"><path d="M40.316 29.837c-.79-1.021-1.982-1.723-3.576-2.104 2.03-1.035 2.922-2.793 2.677-5.272-.082-.9-.33-1.678-.746-2.339a4.68 4.68 0 0 0-1.686-1.593 9.283 9.283 0 0 0-2.309-.92 18.178 18.178 0 0 0-2.86-.46V12h-3.147v5.006c-.545 0-1.376.014-2.493.041V12H23.03v5.15c-.45.013-1.11.02-1.983.02l-4.331-.02v3.35h2.268c1.035 0 1.641.463 1.818 1.39v5.864c.137 0 .245.007.327.02h-.327v8.215c-.109.694-.504 1.042-1.185 1.042H17.35l-.633 3.739h4.087c.258 0 .633.003 1.123.01.49.006.858.01 1.104.01V46h3.147v-5.149c.572.014 1.403.02 2.493.02v5.13h3.146V40.79a24.476 24.476 0 0 0 2.973-.306c.865-.15 1.693-.386 2.483-.706.79-.32 1.45-.718 1.981-1.195.532-.477.97-1.083 1.319-1.819.346-.736.568-1.587.663-2.554.178-1.893-.129-3.35-.919-4.373Zm-14.078-9.113a148.696 148.696 0 0 0 1.91-.03c.293-.007.688.01 1.185.05.498.041.917.096 1.257.164.34.068.715.18 1.124.337.409.157.735.348.98.572.246.225.453.511.623.859.17.347.256.745.256 1.195 0 .381-.061.729-.184 1.042a1.963 1.963 0 0 1-.551.787 5.586 5.586 0 0 1-.757.552c-.258.156-.589.282-.99.378-.402.095-.753.17-1.052.224-.3.055-.675.092-1.124.113-.45.02-.79.034-1.022.04-.232.007-.548.007-.95 0a77.26 77.26 0 0 0-.705-.01v-6.273ZM34.83 34.64c-.13.314-.296.586-.5.818a2.838 2.838 0 0 1-.808.612 6.93 6.93 0 0 1-.97.43 7.83 7.83 0 0 1-1.134.286c-.443.082-.831.14-1.165.174-.334.034-.732.06-1.196.081a26.734 26.734 0 0 1-2.063.02c-.396-.006-.648-.01-.757-.01v-6.906c.11 0 .433-.007.971-.02.538-.014.977-.02 1.318-.02.34 0 .81.02 1.41.06.6.041 1.103.102 1.512.184a9.94 9.94 0 0 1 1.338.378c.484.17.876.378 1.176.623.3.246.551.559.755.94.205.381.307.817.307 1.308 0 .382-.064.729-.194 1.042Z" fill="#000"/></g><defs><radialGradient id="b" cx="0" cy="0" r="1" gradientUnits="userSpaceOnUse" gradientTransform="matrix(-28.4314 0 0 -29.5686 28.431 29.569)"><stop offset=".304" stop-color="#F2E191"/><stop offset="1" stop-color="#E8C25F"/></radialGradient><linearGradient id="a" x1="29" y1="0" x2="29" y2="58" gradientUnits="userSpaceOnUse"><stop stop-color="#FFE458"/><stop offset="1" stop-color="#FFD600"/></linearGradient><clipPath id="c"><path fill="#fff" transform="translate(12 12)" d="M0 0h34v34H0z"/></clipPath></defs></svg>