<svg width="22" height="30" fill="none" xmlns="http://www.w3.org/2000/svg"><path d="M11 .75a10.422 10.422 0 0 0-7.42 3.134A10.8 10.8 0 0 0 .5 11.438c0 7.672 9.783 17.282 10.198 17.687a.43.43 0 0 0 .604 0C11.717 28.72 21.5 19.11 21.5 11.437a10.799 10.799 0 0 0-3.08-7.553A10.421 10.421 0 0 0 11 .75Zm0 15.586a4.753 4.753 0 0 1-2.674-.826 4.881 4.881 0 0 1-1.772-2.198 4.98 4.98 0 0 1-.274-2.83 4.926 4.926 0 0 1 1.317-2.508 4.787 4.787 0 0 1 2.464-1.34 4.734 4.734 0 0 1 2.78.278c.88.37 1.632.999 2.16 1.804a4.96 4.96 0 0 1-.599 6.184A4.773 4.773 0 0 1 11 16.336Z" fill="#000"/></svg>