<svg width="17" height="13" fill="none" xmlns="http://www.w3.org/2000/svg"><path d="M12.401 9.004a3.483 3.483 0 0 0-1.166-2.125 3.494 3.494 0 0 0-2.272-.853h-.778a3.495 3.495 0 0 0-2.272.853 3.484 3.484 0 0 0-1.166 2.125l-.373 2.604a.547.547 0 0 0 .156.464c.146.146 1.044.89 4.045.89s3.896-.741 4.045-.89a.547.547 0 0 0 .155-.464l-.374-2.604ZM5.326 6.428a4.16 4.16 0 0 0-1.302 2.475l-.27 1.87C1.58 10.757.922 9.968.812 9.807A.54.54 0 0 1 .718 9.4l.16-.905a2.986 2.986 0 0 1 1.685-2.189 2.998 2.998 0 0 1 2.763.123ZM16.429 9.4a.538.538 0 0 1-.095.408c-.11.161-.768.95-2.94.964l-.271-1.87a4.16 4.16 0 0 0-1.302-2.474 2.998 2.998 0 0 1 4.447 2.066l.161.905ZM5.45 4.821a1.984 1.984 0 0 1-1.63.84 2.014 2.014 0 0 1-1.99-1.705 2.005 2.005 0 0 1 1.39-2.22 2.015 2.015 0 0 1 1.806.31c-.073.287-.11.581-.11.877 0 .67.186 1.326.534 1.898Zm9.89-1.168a2.004 2.004 0 0 1-1.242 1.855 2.013 2.013 0 0 1-2.401-.687 3.654 3.654 0 0 0 .534-1.898c0-.296-.037-.59-.11-.876a2.013 2.013 0 0 1 3.218 1.606ZM8.573 5.66a2.74 2.74 0 0 0 2.743-2.737A2.74 2.74 0 0 0 8.573.185a2.74 2.74 0 0 0-2.742 2.738A2.74 2.74 0 0 0 8.573 5.66Z" fill="#000"/></svg>