<svg width="64" height="64" fill="none" xmlns="http://www.w3.org/2000/svg"><path fill-rule="evenodd" clip-rule="evenodd" d="M13.474 29.915c9.66-4.234 16.102-7.025 19.325-8.373 9.203-3.85 11.115-4.52 12.362-4.542.274-.005.887.064 1.284.388.589.48.592 1.524.527 2.215-.499 5.27-2.657 18.061-3.755 23.965-.464 2.498-1.379 3.335-2.264 3.417-1.925.178-3.386-1.28-5.25-2.508-2.916-1.923-4.564-3.12-7.395-4.997-3.272-2.169-1.15-3.36.714-5.309.488-.51 8.967-8.267 9.13-8.97.021-.089.04-.417-.154-.59-.193-.173-.48-.114-.686-.067-.292.067-4.951 3.164-13.977 9.293-1.323.914-2.52 1.359-3.594 1.335-1.183-.025-3.46-.672-5.151-1.226-2.076-.678-3.725-1.037-3.581-2.19.075-.6.896-1.214 2.465-1.841Z" fill="#E9C564"/><rect x=".787" y=".787" width="62.426" height="62.426" rx="31.213" stroke="#E9C564" stroke-width="1.574"/></svg>