<svg width="58" height="58" fill="none" xmlns="http://www.w3.org/2000/svg"><circle cx="29" cy="29" r="29" fill="url(#a)"/><circle cx="29" cy="29" r="29" fill="url(#b)"/><g clip-path="url(#c)"><path d="M34.841 27.079c-1.648-.911-3.4-1.605-5.135-2.325-1.006-.416-1.97-.902-2.82-1.579-1.673-1.335-1.352-3.504.608-4.363.555-.243 1.136-.32 1.726-.356 2.273-.12 4.433.295 6.489 1.284 1.023.495 1.361.339 1.708-.728.365-1.128.668-2.273 1.007-3.41.225-.763-.052-1.266-.772-1.587a16.496 16.496 0 0 0-4.095-1.223c-1.856-.286-1.856-.295-1.865-2.16-.008-2.628-.008-2.628-2.645-2.628-.382 0-.764-.009-1.145 0-1.232.035-1.44.251-1.475 1.492-.017.555 0 1.11-.009 1.674-.008 1.648-.017 1.622-1.596 2.195-3.816 1.387-6.176 3.99-6.427 8.154-.226 3.686 1.7 6.176 4.727 7.989 1.865 1.119 3.93 1.778 5.907 2.654.772.338 1.51.729 2.152 1.267 1.9 1.57 1.552 4.18-.703 5.17-1.206.529-2.48.659-3.79.494-2.022-.252-3.956-.78-5.778-1.726-1.067-.555-1.38-.408-1.743.746-.313.997-.59 2.003-.868 3.01-.373 1.353-.234 1.674 1.058 2.307 1.649.798 3.41 1.206 5.205 1.492 1.405.226 1.449.286 1.466 1.744.009.659.009 1.327.017 1.986.01.833.408 1.319 1.267 1.336.971.017 1.952.017 2.923-.009.798-.017 1.206-.45 1.206-1.258 0-.902.043-1.813.009-2.715-.044-.92.355-1.388 1.24-1.63 2.038-.556 3.773-1.649 5.11-3.28 3.712-4.51 2.298-11.111-2.959-14.017Z" fill="#000"/></g><defs><radialGradient id="b" cx="0" cy="0" r="1" gradientUnits="userSpaceOnUse" gradientTransform="matrix(-28.4314 0 0 -29.5686 28.431 29.569)"><stop offset=".304" stop-color="#F2E191"/><stop offset="1" stop-color="#E8C25F"/></radialGradient><linearGradient id="a" x1="29" y1="0" x2="29" y2="58" gradientUnits="userSpaceOnUse"><stop stop-color="#FFE458"/><stop offset="1" stop-color="#FFD600"/></linearGradient><clipPath id="c"><path fill="#fff" transform="translate(8 8)" d="M0 0h42v42H0z"/></clipPath></defs></svg>