<svg width="64" height="64" fill="none" xmlns="http://www.w3.org/2000/svg"><path d="M32.006 23.27a8.723 8.723 0 0 0-8.724 8.723 8.723 8.723 0 0 0 8.724 8.724 8.723 8.723 0 0 0 8.724-8.724 8.723 8.723 0 0 0-8.724-8.723Zm0 14.386a5.66 5.66 0 0 1-5.662-5.663 5.661 5.661 0 0 1 5.662-5.662 5.661 5.661 0 0 1 5.662 5.662 5.66 5.66 0 0 1-5.662 5.663Z" fill="#E9C564"/><path d="M39.01 15.107c-3.128-.146-10.876-.139-14.007 0-2.75.129-5.177.793-7.134 2.75-3.27 3.27-2.852 7.675-2.852 14.136 0 6.613-.368 10.917 2.852 14.137 3.282 3.28 7.752 2.851 14.137 2.851 6.55 0 8.812.005 11.128-.892 3.15-1.222 5.526-4.037 5.759-9.093.147-3.13.139-10.876 0-14.007-.28-5.968-3.484-9.588-9.883-9.882Zm4.951 28.86c-2.143 2.143-5.117 1.952-11.996 1.952-7.083 0-9.924.105-11.996-1.974-2.388-2.375-1.955-6.19-1.955-11.974 0-7.827-.804-13.464 7.052-13.867 1.805-.063 2.336-.085 6.88-.085l.063.043c7.55 0 13.472-.79 13.828 7.063.08 1.792.1 2.33.1 6.867-.002 7 .13 9.858-1.976 11.975Z" fill="#E9C564"/><path d="M41.075 24.964a2.039 2.039 0 1 0 0-4.077 2.039 2.039 0 0 0 0 4.077Z" fill="#E9C564"/><rect x=".787" y=".787" width="62.426" height="62.426" rx="31.213" stroke="#E9C564" stroke-width="1.574"/></svg>