<svg width="16" height="14" fill="none" xmlns="http://www.w3.org/2000/svg"><path d="M3.989 5.408v7.438c0 .127-.023.253-.067.372a1.114 1.114 0 0 1-.402.539 1.099 1.099 0 0 1-.637.205H1.41a1.1 1.1 0 0 1-.781-.327 1.121 1.121 0 0 1-.324-.789V5.408c0-.296.116-.58.324-.789a1.1 1.1 0 0 1 .781-.327h1.474a1.1 1.1 0 0 1 .772.316c.206.203.326.48.334.77v.03Z" fill="#212121"/><path d="M3.989 5.408v7.438c0 .127-.023.253-.067.372a1.114 1.114 0 0 1-.402.539 1.099 1.099 0 0 1-.637.205H1.41a1.1 1.1 0 0 1-.781-.327 1.121 1.121 0 0 1-.324-.789V5.408c0-.296.116-.58.324-.789a1.1 1.1 0 0 1 .781-.327h1.474a1.1 1.1 0 0 1 .772.316c.206.203.326.48.334.77v.03Zm10.207 3.656a1.536 1.536 0 0 1-.328.238 1.496 1.496 0 0 1 .228 1.512 1.458 1.458 0 0 1-.644.723 1.495 1.495 0 0 1-.352 2.192 1.47 1.47 0 0 1-.783.233H6.288a4.056 4.056 0 0 1-1.72-.372 1.875 1.875 0 0 0 .158-.744V5.16A2.587 2.587 0 0 0 5.8 4.197c.26-.416.4-.9.399-1.392V1.317c0-.296.116-.58.324-.789a1.1 1.1 0 0 1 .781-.327 2.37 2.37 0 0 1 1.763.786 2.415 2.415 0 0 1 .614 1.844L9.55 4.292h3.958a1.524 1.524 0 0 1 1.536 1.38 1.5 1.5 0 0 1-.427 1.16c-.092.097-.196.18-.31.25a1.496 1.496 0 0 1-.091 1.993l-.019-.011Z" fill="#212121"/></svg>