<svg width="29" height="29" fill="none" xmlns="http://www.w3.org/2000/svg"><path fill-rule="evenodd" clip-rule="evenodd" d="M23.006 21.287a5.087 5.087 0 0 1-4.165-2.175c-1.168 1.323-2.857 2.175-4.756 2.175a6.38 6.38 0 0 1-6.372-6.372 6.38 6.38 0 0 1 6.372-6.372c1.44 0 2.755.498 3.823 1.307v-.033a1.274 1.274 0 1 1 2.549 0v6.372a2.552 2.552 0 0 0 2.549 2.55 2.552 2.552 0 0 0 2.549-2.55c0-8.529-5.644-12.744-11.47-12.744-6.325 0-11.47 5.145-11.47 11.47 0 6.325 5.145 11.47 11.47 11.47 2.549 0 4.96-.817 6.972-2.362 1.344-1.027 2.884 1 1.553 2.02a13.881 13.881 0 0 1-8.525 2.89c-7.73 0-14.019-6.288-14.019-14.018S6.356.896 14.085.896c7.043 0 14.018 5.195 14.018 15.293a5.103 5.103 0 0 1-5.097 5.098Zm-12.744-6.372a3.827 3.827 0 0 1 3.823-3.823 3.827 3.827 0 0 1 3.823 3.823 3.827 3.827 0 0 1-3.823 3.823 3.827 3.827 0 0 1-3.823-3.823Z" fill="#000"/></svg>