<svg width="19" height="19" fill="none" xmlns="http://www.w3.org/2000/svg"><path d="M15.326 9.856a5.534 5.534 0 0 1-4.966 4.965v3.586a9.034 9.034 0 0 0 5.902-2.65 9.034 9.034 0 0 0 2.65-5.901h-3.586Zm-6.032 4.965a5.532 5.532 0 0 1-4.991-5.498 5.48 5.48 0 0 1 1.259-3.512L3.027 3.276a9.033 9.033 0 0 0-2.3 6.047 9.04 9.04 0 0 0 2.665 6.434 9.033 9.033 0 0 0 5.902 2.65v-3.586ZM6.316 5.057a5.483 5.483 0 0 1 3.511-1.259 5.532 5.532 0 0 1 5.499 4.992h3.585a9.033 9.033 0 0 0-2.65-5.902A9.04 9.04 0 0 0 9.828.223a9.033 9.033 0 0 0-6.046 2.3l2.535 2.534Z" fill="#212121"/><path d="M10.55 8.733c-.482-.17-1.015-.377-1.314-.611-.094-.074-.135-.243-.102-.42.017-.09.095-.385.398-.476.497-.15.838.048.962.14a.533.533 0 0 0 .638-.853 2.126 2.126 0 0 0-.794-.357V5.94a.533.533 0 1 0-1.066 0v.252l-.048.013a1.658 1.658 0 0 0-1.138 1.3c-.108.576.08 1.134.491 1.457.34.265.808.49 1.618.777.54.19.528.627.498.806a.898.898 0 0 1-.892.758c-.515.003-.676-.022-1.072-.281a.533.533 0 0 0-.583.892c.427.28.742.393 1.126.434v.244a.533.533 0 0 0 1.066 0v-.295a1.91 1.91 0 0 0 .79-.439 2 2 0 0 0 .616-1.136c.15-.884-.33-1.683-1.193-1.988Z" fill="#212121"/></svg>