<svg width="9" height="9" viewBox="0 0 9 9" fill="none" xmlns="http://www.w3.org/2000/svg">
<path d="M0.532296 5.12493C0.568541 5.13133 0.605222 5.13428 0.641923 5.13376L6.89109 5.13376L6.75482 5.20274C6.62163 5.27135 6.50045 5.36472 6.39673 5.47864L4.64431 7.3858C4.41351 7.62558 4.37473 8.0113 4.55241 8.29972C4.7592 8.60707 5.15577 8.6738 5.43821 8.44875C5.46102 8.43056 5.48271 8.41073 5.50309 8.38939L8.67203 4.94063C8.91968 4.67142 8.9199 4.2347 8.67252 3.96518L5.50309 0.515882C5.25524 0.246901 4.85395 0.247504 4.60678 0.51724C4.58733 0.538471 4.56917 0.56106 4.55241 0.584857C4.37473 0.87328 4.41351 1.259 4.64431 1.49878L6.39356 3.40939C6.48655 3.51069 6.59346 3.59564 6.71046 3.66115L6.90059 3.75426L0.676801 3.75426C0.353035 3.74118 0.0689777 3.98731 0.0081539 4.33365C-0.0478769 4.70967 0.186783 5.06393 0.532296 5.12493Z" fill="white"/>
</svg>
