<svg width="58" height="58" viewBox="0 0 58 58" fill="none" xmlns="http://www.w3.org/2000/svg">
<circle cx="29" cy="29" r="29" fill="url(#paint0_linear_228_295)"/>
<circle cx="29" cy="29" r="29" fill="url(#paint1_radial_228_295)"/>
<g clip-path="url(#clip0_228_295)">
<path d="M40.3162 29.8373C39.5263 28.8159 38.3343 28.1143 36.7403 27.733C38.7702 26.6976 39.6622 24.9403 39.4173 22.4609C39.3354 21.5617 39.0869 20.7825 38.6712 20.122C38.2553 19.4614 37.694 18.9303 36.9852 18.5285C36.2769 18.1262 35.5067 17.82 34.6761 17.6088C33.8454 17.3977 32.8916 17.2444 31.8154 17.1492V12H28.669V17.0061C28.1242 17.0061 27.2933 17.0197 26.1764 17.047V12H23.0295V17.1492C22.5799 17.1628 21.9193 17.1698 21.0475 17.1698L16.7158 17.1492V20.5003H18.9837C20.019 20.5003 20.6252 20.9635 20.8023 21.8897V27.7541C20.9387 27.7541 21.0475 27.7611 21.1293 27.7747H20.8023V35.9885C20.6934 36.683 20.2984 37.0306 19.6173 37.0306H17.3495L16.716 40.77H20.8026C21.0615 40.77 21.4359 40.7734 21.9265 40.7796C22.4168 40.7864 22.7844 40.7899 23.0297 40.7899V46.0002H26.177V40.8511C26.749 40.8651 27.5799 40.8717 28.6696 40.8717V46.0002H31.8161V40.7899C32.9334 40.7355 33.9243 40.6338 34.7889 40.4835C35.6539 40.3331 36.4817 40.0985 37.2716 39.7782C38.0614 39.4583 38.722 39.0596 39.2532 38.5828C39.7846 38.1064 40.2236 37.5 40.5715 36.7642C40.9183 36.0285 41.14 35.1772 41.235 34.2098C41.4129 32.3168 41.1062 30.8591 40.3162 29.8373ZM26.2376 20.7244C26.333 20.7244 26.602 20.721 27.0447 20.7141C27.4876 20.7071 27.8553 20.7004 28.1481 20.6935C28.4411 20.6868 28.8361 20.7038 29.3335 20.7447C29.8307 20.7855 30.2495 20.8401 30.59 20.9081C30.9304 20.9761 31.3053 21.0885 31.7136 21.2452C32.1226 21.4017 32.4494 21.5925 32.6943 21.8172C32.9397 22.042 33.1474 22.3282 33.3173 22.6756C33.4878 23.0229 33.573 23.4213 33.573 23.8707C33.573 24.2522 33.5118 24.5997 33.3893 24.9131C33.2671 25.2264 33.0827 25.4887 32.8378 25.6998C32.5928 25.911 32.3404 26.0951 32.0815 26.2516C31.8229 26.4081 31.4923 26.5342 31.0906 26.6295C30.6889 26.7249 30.3382 26.7998 30.0387 26.8542C29.7389 26.9087 29.3644 26.9463 28.9148 26.9666C28.4652 26.9869 28.1245 27.0008 27.8931 27.0076C27.6614 27.0143 27.3448 27.0143 26.9428 27.0076C26.5407 27.0008 26.306 26.9972 26.2378 26.9972V20.7243L26.2376 20.7244ZM34.83 34.6391C34.7002 34.9526 34.5336 35.2252 34.3294 35.4569C34.1249 35.6881 33.8557 35.8926 33.5222 36.0695C33.1887 36.2468 32.8648 36.3896 32.5518 36.4986C32.2383 36.608 31.8601 36.7028 31.4179 36.7849C30.9746 36.8667 30.5866 36.9242 30.2525 36.9585C29.9189 36.9926 29.5207 37.0197 29.0573 37.0404C28.5944 37.0604 28.2332 37.0708 27.9744 37.0708C27.7156 37.0708 27.3886 37.067 26.9935 37.0604C26.5983 37.054 26.3465 37.0506 26.2374 37.0506V30.1439C26.3463 30.1439 26.6698 30.1373 27.208 30.1234C27.7463 30.1097 28.1853 30.1033 28.5259 30.1033C28.8665 30.1033 29.3366 30.1234 29.9362 30.1646C30.5352 30.2051 31.0393 30.2662 31.4483 30.3479C31.8568 30.4298 32.3026 30.5556 32.7865 30.7261C33.27 30.8963 33.6618 31.1039 33.9616 31.3491C34.2613 31.5948 34.5132 31.9076 34.7174 32.2891C34.9222 32.6704 35.0243 33.1064 35.0243 33.5969C35.0242 33.9788 34.9596 34.3256 34.83 34.6391Z" fill="black"/>
</g>
<defs>
<linearGradient id="paint0_linear_228_295" x1="29" y1="0" x2="29" y2="58" gradientUnits="userSpaceOnUse">
<stop stop-color="#FFE458"/>
<stop offset="1" stop-color="#FFD600"/>
</linearGradient>
<radialGradient id="paint1_radial_228_295" cx="0" cy="0" r="1" gradientUnits="userSpaceOnUse" gradientTransform="translate(28.4314 29.5686) rotate(180) scale(28.4314 29.5686)">
<stop offset="0.303924" stop-color="#F2E191"/>
<stop offset="1" stop-color="#E8C25F"/>
</radialGradient>
<clipPath id="clip0_228_295">
<rect width="34" height="34" fill="white" transform="translate(12 12)"/>
</clipPath>
</defs>
</svg>
