<svg width="58" height="58" viewBox="0 0 58 58" fill="none" xmlns="http://www.w3.org/2000/svg">
<circle cx="29" cy="29" r="29" fill="url(#paint0_linear_228_300)"/>
<circle cx="29" cy="29" r="29" fill="url(#paint1_radial_228_300)"/>
<g clip-path="url(#clip0_228_300)">
<path d="M34.8412 27.0788C33.1931 26.168 31.4408 25.4741 29.706 24.7541C28.6997 24.3377 27.7369 23.852 26.8868 23.1754C25.2126 21.8395 25.5336 19.6709 27.494 18.8121C28.0492 18.5693 28.6303 18.4912 29.2202 18.4565C31.4929 18.3351 33.6528 18.7514 35.7086 19.7403C36.7322 20.2347 37.0705 20.0786 37.4175 19.0117C37.7818 17.884 38.0854 16.739 38.4237 15.6026C38.6493 14.8393 38.3717 14.3362 37.6517 14.0152C36.3332 13.434 34.98 13.0177 33.5574 12.7921C31.7011 12.5059 31.7011 12.4972 31.6924 10.6322C31.6837 8.00386 31.6837 8.00386 29.0467 8.00386C28.665 8.00386 28.2834 7.99518 27.9017 8.00386C26.6699 8.03855 26.4618 8.25541 26.4271 9.49585C26.4097 10.051 26.4271 10.6062 26.4184 11.17C26.4097 12.8181 26.401 12.7921 24.8223 13.3646C21.0056 14.7525 18.6461 17.3548 18.3946 21.5186C18.169 25.2052 20.0947 27.6947 23.1221 29.5077C24.9871 30.6267 27.0516 31.2859 29.0294 32.162C29.8014 32.5003 30.5387 32.8907 31.1806 33.4285C33.0803 34.9986 32.7333 37.6095 30.478 38.5984C29.2723 39.1276 27.9971 39.2577 26.6873 39.0929C24.6662 38.8413 22.7318 38.3122 20.9101 37.3667C19.8432 36.8115 19.5309 36.959 19.1666 38.1127C18.8543 39.1102 18.5767 40.1164 18.2992 41.1227C17.9262 42.4759 18.0649 42.7968 19.3574 43.4301C21.0056 44.2281 22.7665 44.6358 24.5621 44.9221C25.9673 45.1476 26.0107 45.2083 26.028 46.6656C26.0367 47.3249 26.0367 47.9928 26.0454 48.652C26.0541 49.4848 26.4531 49.9705 27.3118 49.9879C28.2834 50.0052 29.2636 50.0052 30.2351 49.9792C31.0332 49.9619 31.4409 49.5281 31.4409 48.7214C31.4409 47.8193 31.4842 46.9085 31.4495 46.0064C31.4062 45.0869 31.8052 44.6184 32.69 44.3756C34.7284 43.8204 36.4633 42.7274 37.7992 41.0966C41.5118 36.586 40.0979 29.9848 34.8412 27.0788Z" fill="black"/>
</g>
<defs>
<linearGradient id="paint0_linear_228_300" x1="29" y1="0" x2="29" y2="58" gradientUnits="userSpaceOnUse">
<stop stop-color="#FFE458"/>
<stop offset="1" stop-color="#FFD600"/>
</linearGradient>
<radialGradient id="paint1_radial_228_300" cx="0" cy="0" r="1" gradientUnits="userSpaceOnUse" gradientTransform="translate(28.4314 29.5686) rotate(180) scale(28.4314 29.5686)">
<stop offset="0.303924" stop-color="#F2E191"/>
<stop offset="1" stop-color="#E8C25F"/>
</radialGradient>
<clipPath id="clip0_228_300">
<rect width="42" height="42" fill="white" transform="translate(8 8)"/>
</clipPath>
</defs>
</svg>
