<svg width="64" height="64" viewBox="0 0 64 64" fill="none" xmlns="http://www.w3.org/2000/svg">
<path d="M32.006 23.2695C27.1851 23.2695 23.2822 27.1766 23.2822 31.9932C23.2822 36.814 27.1893 40.7168 32.006 40.7168C36.8269 40.7168 40.7298 36.8098 40.7298 31.9932C40.7298 27.1723 36.8227 23.2695 32.006 23.2695ZM32.006 37.6555C28.8766 37.6555 26.3436 35.1211 26.3436 31.9932C26.3436 28.8652 28.878 26.3308 32.006 26.3308C35.134 26.3308 37.6684 28.8652 37.6684 31.9932C37.6698 35.1211 35.1354 37.6555 32.006 37.6555Z" fill="#E9C564"/>
<path d="M39.01 15.1068C35.882 14.9609 28.1342 14.968 25.0034 15.1068C22.2522 15.2357 19.8255 15.9001 17.8691 17.8565C14.5994 21.1261 15.0173 25.5319 15.0173 31.9932C15.0173 38.6061 14.649 42.9098 17.8691 46.1298C21.1515 49.4108 25.6211 48.9815 32.006 48.9815C38.5567 48.9815 40.8177 48.9858 43.1339 48.0891C46.2832 46.8665 48.6603 44.0516 48.8927 38.9956C49.04 35.8663 49.0315 28.1201 48.8927 24.9893C48.6122 19.021 45.4091 15.4015 39.01 15.1068ZM43.9612 43.9666C41.8178 46.11 38.8442 45.9188 31.9649 45.9188C24.8816 45.9188 22.0412 46.0236 19.9686 43.9454C17.5815 41.5697 18.0136 37.7547 18.0136 31.9705C18.0136 24.1436 17.2103 18.5067 25.0657 18.1044C26.8706 18.0407 27.4018 18.0194 31.9451 18.0194L32.0088 18.0619C39.5582 18.0619 45.4813 17.2714 45.8369 25.1253C45.9177 26.9173 45.9361 27.4557 45.9361 31.9918C45.9347 38.9928 46.0678 41.8502 43.9612 43.9666Z" fill="#E9C564"/>
<path d="M41.0755 24.9638C42.2014 24.9638 43.1141 24.0511 43.1141 22.9252C43.1141 21.7994 42.2014 20.8867 41.0755 20.8867C39.9496 20.8867 39.0369 21.7994 39.0369 22.9252C39.0369 24.0511 39.9496 24.9638 41.0755 24.9638Z" fill="#E9C564"/>
<rect x="0.786885" y="0.786885" width="62.4262" height="62.4262" rx="31.2131" stroke="#E9C564" stroke-width="1.57377"/>
</svg>
