<svg width="16" height="14" viewBox="0 0 16 14" fill="none" xmlns="http://www.w3.org/2000/svg">
<path d="M3.98873 5.40804V12.8464C3.98825 12.9734 3.9658 13.0992 3.9224 13.2183C3.84637 13.4354 3.7057 13.6234 3.51965 13.7565C3.33361 13.8897 3.11131 13.9615 2.88323 13.9622H1.40922C1.11602 13.9622 0.834829 13.8446 0.627506 13.6354C0.420184 13.4261 0.303711 13.1423 0.303711 12.8464V5.40804C0.303711 5.11213 0.420184 4.82833 0.627506 4.61908C0.834829 4.40984 1.11602 4.29228 1.40922 4.29228H2.88323C3.17139 4.29218 3.4482 4.40564 3.6547 4.60849C3.86119 4.81135 3.98105 5.08756 3.98873 5.37829C3.98873 5.37829 3.98873 5.39689 3.98873 5.40804Z" fill="#212121"/>
<path d="M3.98873 5.40804V12.8464C3.98825 12.9734 3.9658 13.0992 3.9224 13.2183C3.84637 13.4354 3.7057 13.6234 3.51965 13.7565C3.33361 13.8897 3.11131 13.9615 2.88323 13.9622H1.40922C1.11602 13.9622 0.834829 13.8446 0.627506 13.6354C0.420184 13.4261 0.303711 13.1423 0.303711 12.8464V5.40804C0.303711 5.11213 0.420184 4.82833 0.627506 4.61908C0.834829 4.40984 1.11602 4.29228 1.40922 4.29228H2.88323C3.17139 4.29218 3.4482 4.40564 3.6547 4.60849C3.86119 4.81135 3.98105 5.08756 3.98873 5.37829C3.98873 5.37829 3.98873 5.39689 3.98873 5.40804Z" fill="#212121"/>
<path d="M14.1962 9.06401C14.0978 9.15757 13.9875 9.23761 13.8683 9.30204C14.0856 9.56674 14.2054 9.89923 14.2073 10.243C14.2086 10.4389 14.1708 10.6331 14.0961 10.8139C14.0214 10.9948 13.9113 11.1586 13.7725 11.2955C13.6764 11.3898 13.5686 11.471 13.4519 11.5373C13.6268 11.7549 13.7373 12.018 13.7706 12.2963C13.8038 12.5745 13.7586 12.8566 13.64 13.11C13.5214 13.3634 13.3342 13.5778 13.1002 13.7286C12.8661 13.8794 12.5946 13.9603 12.3169 13.9622H6.28818C5.69459 13.9658 5.10734 13.8389 4.56728 13.5903C4.5876 13.5495 4.60485 13.5072 4.61887 13.4638C4.68884 13.2656 4.72498 13.0568 4.72574 12.8464V5.31506C4.72574 5.26299 4.72574 5.21093 4.72574 5.15886C5.16708 4.94757 5.53991 4.61414 5.80085 4.19737C6.0618 3.7806 6.20012 3.29762 6.19974 2.80461V1.31693C6.19974 1.02101 6.31622 0.737215 6.52354 0.52797C6.73086 0.318725 7.01205 0.201172 7.30525 0.201172C7.63707 0.201331 7.96521 0.271285 8.26875 0.406571C8.57228 0.541857 8.84455 0.739506 9.06819 0.986911C9.29182 1.23432 9.46191 1.52605 9.56761 1.84349C9.67331 2.16094 9.7123 2.49714 9.68209 2.83064L9.54943 4.29228H13.5071C13.8883 4.28485 14.2583 4.42279 14.5431 4.67856C14.828 4.93433 15.0068 5.28913 15.0438 5.67211C15.0593 5.88516 15.0291 6.09908 14.9553 6.29931C14.8816 6.49954 14.766 6.68139 14.6163 6.83249C14.5244 6.92887 14.4203 7.01265 14.3068 7.08168C14.5389 7.3664 14.6581 7.72799 14.641 8.09633C14.624 8.46466 14.4721 8.81349 14.2147 9.07517L14.1962 9.06401Z" fill="#212121"/>
</svg>
