<svg width="29" height="29" viewBox="0 0 29 29" fill="none" xmlns="http://www.w3.org/2000/svg">
<path fill-rule="evenodd" clip-rule="evenodd" d="M23.0059 21.2871C21.2834 21.2871 19.7644 20.4238 18.8413 19.1124C17.6729 20.435 15.9842 21.2871 14.085 21.2871C10.5716 21.2871 7.71289 18.4284 7.71289 14.915C7.71289 11.4016 10.5716 8.54297 14.085 8.54297C15.5249 8.54297 16.8399 9.04126 17.9082 9.84992V9.81738C17.9082 9.11297 18.4782 8.54297 19.1826 8.54297C19.887 8.54297 20.457 9.11297 20.457 9.81738V16.1895C20.457 17.5945 21.6008 18.7383 23.0059 18.7383C24.4109 18.7383 25.5547 17.5945 25.5547 16.1895C25.5547 7.66014 19.9106 3.44531 14.085 3.44531C7.76021 3.44531 2.61523 8.59029 2.61523 14.915C2.61523 21.2398 7.76021 26.3848 14.085 26.3848C16.6338 26.3848 19.0445 25.5684 21.0569 24.0226C22.4012 22.9964 23.9405 25.0222 22.6101 26.0437C20.1472 27.9342 17.2001 28.9336 14.085 28.9336C6.35513 28.9336 0.0664062 22.6449 0.0664062 14.915C0.0664062 7.18521 6.35513 0.896484 14.085 0.896484C21.128 0.896484 28.1035 6.09057 28.1035 16.1895C28.1035 19.0009 25.8173 21.2871 23.0059 21.2871ZM10.2617 14.915C10.2617 12.8068 11.9767 11.0918 14.085 11.0918C16.1932 11.0918 17.9082 12.8068 17.9082 14.915C17.9082 17.0233 16.1932 18.7383 14.085 18.7383C11.9767 18.7383 10.2617 17.0233 10.2617 14.915Z" fill="black"/>
</svg>
