<svg width="22" height="30" viewBox="0 0 22 30" fill="none" xmlns="http://www.w3.org/2000/svg">
<path d="M11 0.75C8.21636 0.753758 5.54779 1.88097 3.57946 3.88444C1.61112 5.88792 0.503693 8.60414 0.5 11.4375C0.5 19.1102 10.2825 28.72 10.6981 29.1253C10.779 29.2053 10.8873 29.25 11 29.25C11.1127 29.25 11.221 29.2053 11.3019 29.1253C11.7175 28.72 21.5 19.1102 21.5 11.4375C21.4963 8.60414 20.3889 5.88792 18.4205 3.88444C16.4522 1.88097 13.7836 0.753758 11 0.75ZM11 16.3359C10.0482 16.3359 9.11773 16.0486 8.32632 15.5104C7.53491 14.9721 6.91808 14.2071 6.55383 13.312C6.18958 12.417 6.09428 11.4321 6.27997 10.4819C6.46566 9.53165 6.92401 8.65883 7.59705 7.97377C8.27009 7.28872 9.12759 6.82219 10.0611 6.63318C10.9947 6.44417 11.9623 6.54118 12.8417 6.91193C13.721 7.28268 14.4726 7.91052 15.0014 8.71607C15.5303 9.52161 15.8125 10.4687 15.8125 11.4375C15.8117 12.7364 15.3045 13.9819 14.4021 14.9003C13.4998 15.8188 12.2761 16.3351 11 16.3359Z" fill="black"/>
</svg>
