<svg width="19" height="19" viewBox="0 0 19 19" fill="none" xmlns="http://www.w3.org/2000/svg">
<path d="M15.3258 9.85596C15.0736 12.4774 12.9818 14.5692 10.3604 14.8214V18.407C12.5905 18.2789 14.6694 17.35 16.2619 15.7575C17.8544 14.165 18.7833 12.0861 18.9114 9.85592H15.3258V9.85596Z" fill="#212121"/>
<path d="M9.29394 14.8214C6.49697 14.5523 4.30264 12.1891 4.30264 9.32275C4.30264 8.02631 4.74634 6.79811 5.56165 5.81132L3.0266 3.27627C1.54016 4.94379 0.727051 7.07066 0.727051 9.32275C0.727051 11.7535 1.6736 14.0387 3.39238 15.7575C4.98486 17.35 7.06374 18.2789 9.29394 18.407V14.8214Z" fill="#212121"/>
<path d="M6.31572 5.05726C7.30251 4.24195 8.5307 3.79825 9.82715 3.79825C12.6935 3.79825 15.0567 5.99258 15.3258 8.78954H18.9113C18.7833 6.55934 17.8543 4.48047 16.2619 2.88802C14.5431 1.16921 12.2579 0.222656 9.82715 0.222656C7.57505 0.222656 5.44815 1.03576 3.78067 2.52221L6.31572 5.05726Z" fill="#212121"/>
<path d="M10.5507 8.73263C10.0683 8.56215 9.53484 8.35618 9.23564 8.12154C9.14162 8.04781 9.10095 7.87896 9.1344 7.70141C9.15111 7.61282 9.2291 7.31675 9.53196 7.2255C10.0292 7.07577 10.3702 7.27438 10.4937 7.36673C10.7296 7.54301 11.0637 7.49477 11.24 7.25891C11.4164 7.02306 11.3681 6.68891 11.1322 6.51256C11.0203 6.42889 10.74 6.24546 10.3381 6.15638V5.93936C10.3381 5.64489 10.0994 5.40616 9.80489 5.40616C9.51042 5.40616 9.27168 5.64489 9.27168 5.93936V6.19115C9.25594 6.19555 9.2403 6.19961 9.22437 6.2044C8.64036 6.38033 8.20434 6.87827 8.08643 7.5039C7.97791 8.07977 8.16606 8.63793 8.57748 8.96063C8.9165 9.22649 9.38519 9.45172 10.1952 9.73808C10.7346 9.92873 10.7229 10.3652 10.6928 10.544C10.6319 10.9066 10.3269 11.2984 9.8013 11.3019C9.28619 11.3054 9.1253 11.2798 8.72934 11.0208C8.48289 10.8596 8.15244 10.9287 7.99124 11.1751C7.83003 11.4216 7.89913 11.752 8.14555 11.9132C8.57261 12.1926 8.8877 12.3059 9.27165 12.3473V12.591C9.27165 12.8854 9.51038 13.1242 9.80486 13.1242C10.0994 13.1242 10.3381 12.8854 10.3381 12.591V12.296C10.6318 12.2152 10.8995 12.0674 11.1283 11.8572C11.4525 11.5593 11.6713 11.1557 11.7444 10.7209C11.8932 9.83662 11.4134 9.03763 10.5507 8.73263Z" fill="#212121"/>
</svg>
