<svg width="17" height="13" viewBox="0 0 17 13" fill="none" xmlns="http://www.w3.org/2000/svg">
<path d="M12.401 9.00369C12.2794 8.17896 11.8658 7.42505 11.235 6.87873C10.6043 6.33241 9.79833 6.02988 8.96329 6.02601H8.18505C7.35002 6.02988 6.54403 6.33241 5.91331 6.87873C5.28259 7.42505 4.86891 8.17896 4.74733 9.00369L4.3743 11.6075C4.36238 11.6917 4.37026 11.7775 4.3973 11.8581C4.42434 11.9387 4.46981 12.0119 4.5301 12.0719C4.67638 12.2179 5.57385 12.9627 8.5749 12.9627C11.576 12.9627 12.4712 12.2209 12.6197 12.0719C12.68 12.0119 12.7255 11.9387 12.7525 11.8581C12.7795 11.7775 12.7874 11.6917 12.7755 11.6075L12.401 9.00369Z" fill="black"/>
<path d="M5.32589 6.42761C4.61899 7.07817 4.15904 7.95264 4.02395 8.90292L3.75332 10.7722C1.58097 10.7576 0.922682 9.96899 0.812968 9.80835C0.770558 9.74999 0.740294 9.68374 0.723962 9.61351C0.707631 9.54328 0.705563 9.47049 0.717882 9.39945L0.878797 8.49402C0.962635 8.02083 1.15954 7.57479 1.4528 7.19374C1.74607 6.81268 2.12706 6.50784 2.56346 6.30505C2.99986 6.10227 3.47881 6.00753 3.9597 6.02887C4.44059 6.0502 4.90923 6.18699 5.32589 6.42761Z" fill="black"/>
<path d="M16.429 9.39945C16.4413 9.47049 16.4393 9.54328 16.4229 9.61351C16.4066 9.68374 16.3763 9.74999 16.3339 9.80835C16.2242 9.96899 15.5659 10.7576 13.3936 10.7722L13.1229 8.90292C12.9878 7.95264 12.5279 7.07817 11.821 6.42761C12.2377 6.18699 12.7063 6.0502 13.1872 6.02887C13.6681 6.00753 14.147 6.10227 14.5834 6.30505C15.0198 6.50784 15.4008 6.81268 15.6941 7.19374C15.9873 7.57479 16.1842 8.02083 16.2681 8.49402L16.429 9.39945Z" fill="black"/>
<path d="M5.45023 4.82122C5.26612 5.08189 5.02169 5.29434 4.73773 5.44053C4.45376 5.58672 4.13864 5.66233 3.81915 5.66092C3.50043 5.66092 3.18628 5.58532 2.90257 5.44033C2.61887 5.29535 2.37374 5.08514 2.18739 4.82702C2.00103 4.56891 1.87878 4.27028 1.83072 3.95575C1.78265 3.64122 1.81015 3.31979 1.91093 3.01794C2.01172 2.7161 2.18291 2.44249 2.41041 2.21965C2.6379 1.99681 2.91518 1.83114 3.2194 1.73627C3.52362 1.6414 3.84607 1.62006 4.16017 1.674C4.47427 1.72794 4.77103 1.85563 5.02601 2.04653C4.95267 2.33283 4.91581 2.62723 4.91629 2.92275C4.91685 3.59243 5.10154 4.24911 5.45023 4.82122Z" fill="black"/>
<path d="M15.3392 3.65293C15.3394 3.91668 15.2875 4.17787 15.1865 4.42158C15.0854 4.66529 14.9373 4.88673 14.7505 5.07322C14.5636 5.25972 14.3418 5.40762 14.0977 5.50847C13.8536 5.60931 13.5919 5.66112 13.3277 5.66092C13.0082 5.66233 12.6931 5.58672 12.4092 5.44053C12.1252 5.29434 11.8808 5.08189 11.6966 4.82122C12.0453 4.24911 12.23 3.59243 12.2306 2.92275C12.2311 2.62723 12.1942 2.33283 12.1209 2.04653C12.4197 1.82279 12.7751 1.68653 13.1471 1.65304C13.5191 1.61956 13.8932 1.69015 14.2273 1.85692C14.5614 2.02369 14.8424 2.28005 15.0388 2.59726C15.2352 2.91448 15.3392 3.28002 15.3392 3.65293Z" fill="black"/>
<path d="M8.57344 5.66092C10.0883 5.66092 11.3163 4.435 11.3163 2.92275C11.3163 1.41049 10.0883 0.18457 8.57344 0.18457C7.0586 0.18457 5.83058 1.41049 5.83058 2.92275C5.83058 4.435 7.0586 5.66092 8.57344 5.66092Z" fill="black"/>
</svg>
