<svg width="64" height="64" viewBox="0 0 64 64" fill="none" xmlns="http://www.w3.org/2000/svg">
<path fill-rule="evenodd" clip-rule="evenodd" d="M13.474 29.9148C23.1344 25.6811 29.5763 22.8899 32.7994 21.5415C42.0022 17.6912 43.9145 17.0224 45.1609 17.0002C45.435 16.9954 46.048 17.0638 46.445 17.3879C47.0339 17.8686 47.0373 18.9121 46.9719 19.6027C46.4732 24.8735 44.3153 37.6643 43.2175 43.5677C42.7529 46.0656 41.8382 46.9032 40.9528 46.9851C39.0285 47.1633 37.5672 45.7058 35.7033 44.4769C32.7867 42.5538 31.139 41.3566 28.3079 39.4801C25.0361 37.3113 27.1571 36.1194 29.0217 34.1713C29.5097 33.6616 37.9885 25.9039 38.1526 25.2001C38.1732 25.1121 38.1923 24.784 37.9985 24.6108C37.8047 24.4376 37.5187 24.4967 37.3124 24.5439C37.0199 24.6106 32.3606 27.7084 23.3346 33.8371C22.012 34.7506 20.8141 35.1957 19.7409 35.1724C18.5576 35.1467 16.2817 34.4995 14.5897 33.9462C12.5144 33.2677 10.865 32.9088 11.0087 31.7565C11.0835 31.1561 11.9053 30.5423 13.474 29.9148Z" fill="#E9C564"/>
<rect x="0.786885" y="0.786885" width="62.4262" height="62.4262" rx="31.2131" stroke="#E9C564" stroke-width="1.57377"/>
</svg>
