<svg width="120" height="123" fill="none" xmlns="http://www.w3.org/2000/svg"><path fill-rule="evenodd" clip-rule="evenodd" d="M95.518 40.027C88.365 27.603 75.295 20.01 60.355 20.01c-22.618 0-40.253 17.976-40.253 41.491s17.635 43.3 40.253 43.3c14.94 0 28.01-9.042 35.163-21.465h20.5C107.546 106.52 85.628 123 60.355 123 27.685 123 .5 95.466.5 61.5S27.685 0 60.355 0c25.273 0 47.191 16.842 55.663 40.027h-20.5Zm22.632 14.238v15.194H79.606c-3.018 8.042-10.572 13.747-19.42 13.747-11.504 0-20.83-9.637-20.83-21.525 0-11.888 9.326-21.525 20.83-21.525 8.981 0 16.634 5.875 19.558 14.109h38.406Z" fill="url(#a)"/><path d="M100.77 61.5c0 23.6-18.453 43.05-40.776 43.05-1.581 0-3.143.183-4.68 0v18.263c1.544.124 3.105.187 4.68.187 34.092 0 60.162-28.017 59.493-61.5 0-2.31-.123-4.59-.363-6.833h-18.879a44.38 44.38 0 0 1 .525 6.833Z" fill="url(#b)"/><defs><linearGradient id="a" x1="119.5" y1="0" x2="-5.398" y2="6.313" gradientUnits="userSpaceOnUse"><stop stop-color="#E8C25F"/><stop offset=".505" stop-color="#F2E191"/><stop offset="1" stop-color="#D3A647"/></linearGradient><linearGradient id="b" x1="119.5" y1="0" x2="-5.398" y2="6.313" gradientUnits="userSpaceOnUse"><stop stop-color="#E8C25F"/><stop offset=".505" stop-color="#F2E191"/><stop offset="1" stop-color="#D3A647"/></linearGradient></defs></svg>