<svg width="1193" height="665" fill="none" xmlns="http://www.w3.org/2000/svg"><path d="M.23 81.573C-1.358 35.63 38.455-2.388 84.28 1.293 182.664 9.196 359.552 19.899 596 19.899c238.396 0 416.25-10.88 514.14-18.801 45.03-3.644 83.97 32.992 82.44 78.145-2.17 64.149-4.58 156.772-4.58 252.257 0 97.031 2.49 191.107 4.69 255.351 1.51 44.079-35.59 80.189-79.62 77.674-97.86-5.589-277.976-13.448-517.07-13.448-237.258 0-416.442 7.739-514.798 13.319-44.82 2.542-82.667-34.888-81.085-79.752C2.077 529.053 4 445.476 4 331.5 4 219.702 2.15 137.152.23 81.573Z" fill="url(#a)"/><path d="M.23 81.573C-1.358 35.63 38.455-2.388 84.28 1.293 182.664 9.196 359.552 19.899 596 19.899c238.396 0 416.25-10.88 514.14-18.801 45.03-3.644 83.97 32.992 82.44 78.145-2.17 64.149-4.58 156.772-4.58 252.257 0 97.031 2.49 191.107 4.69 255.351 1.51 44.079-35.59 80.189-79.62 77.674-97.86-5.589-277.976-13.448-517.07-13.448-237.258 0-416.442 7.739-514.798 13.319-44.82 2.542-82.667-34.888-81.085-79.752C2.077 529.053 4 445.476 4 331.5 4 219.702 2.15 137.152.23 81.573Z" fill="url(#b)"/><path d="M2.228 81.504C.682 36.754 39.485-.299 84.12 3.286 182.552 11.194 359.493 21.9 596 21.9c238.457 0 416.36-10.883 514.3-18.808 43.86-3.549 81.77 32.144 80.28 76.084-2.17 64.162-4.58 156.81-4.58 252.325 0 97.062 2.49 191.163 4.69 255.419 1.47 42.898-34.65 78.057-77.51 75.609-97.89-5.59-278.043-13.451-517.18-13.451-237.301 0-416.523 7.74-514.91 13.322-43.632 2.475-80.515-33.984-78.974-77.684C4.077 529.099 6 445.499 6 331.5 6 219.679 4.15 137.107 2.228 81.504Z" stroke="url(#c)" stroke-opacity=".64" stroke-width="4" style="mix-blend-mode:soft-light"/><defs><linearGradient id="a" x1="7.255" y1="-1.516" x2="1246.34" y2="540.03" gradientUnits="userSpaceOnUse"><stop stop-color="#FFDD28"/><stop offset=".527" stop-color="#FFE86F"/><stop offset="1" stop-color="#FFDD28"/></linearGradient><linearGradient id="b" x1="1196" y1="-7" x2="-55.957" y2="108.938" gradientUnits="userSpaceOnUse"><stop stop-color="#E8C25F"/><stop offset=".505" stop-color="#F2E191"/><stop offset="1" stop-color="#D3A647"/></linearGradient><radialGradient id="c" cx="0" cy="0" r="1" gradientUnits="userSpaceOnUse" gradientTransform="matrix(-600.00027 -338 599.1152 -1063.5186 1196 670)"><stop stop-color="#fff"/><stop offset="1" stop-color="#D8AF53"/></radialGradient></defs></svg>