<svg width="228" height="236" fill="none" xmlns="http://www.w3.org/2000/svg"><rect width="228" height="235.664" rx="114" fill="url(#a)"/><path d="M105.077 167.557a2.948 2.948 0 0 1-4.301.222l-47.115-44.756a3.15 3.15 0 0 1-.122-4.427l15.011-15.92a3.122 3.122 0 0 1 4.41-.122l25.738 24.447a2.948 2.948 0 0 0 4.301-.221l50.281-58.636a3.12 3.12 0 0 1 4.399-.33L174.23 82.11a3.149 3.149 0 0 1 .33 4.416l-69.483 81.03Z" fill="#fff"/><defs><linearGradient id="a" x1="228" y1="0" x2="0" y2="235.664" gradientUnits="userSpaceOnUse"><stop stop-color="#E8C25F"/><stop offset=".52" stop-color="#F2E191"/><stop offset="1" stop-color="#D3A647"/></linearGradient></defs></svg>