<svg width="320" height="197" fill="none" xmlns="http://www.w3.org/2000/svg"><g filter="url(#a)"><path d="M8.17 36.23C7.746 23.143 19.08 12.3 32.135 13.314c25.545 1.982 69.618 4.52 127.865 4.52 58.763 0 103.099-2.583 128.538-4.573 12.829-1.003 23.924 9.443 23.502 22.304-.529 16.142-1.08 38.463-1.08 61.435 0 23.39.571 46.105 1.109 62.311.417 12.556-10.181 22.851-22.724 22.157-25.456-1.407-70.363-3.276-129.345-3.276-58.496 0-103.148 1.838-128.712 3.241-12.768.701-23.572-9.972-23.148-22.752.467-14.08.9-34.47.9-61.681 0-26.63-.415-46.727-.87-60.77Z" fill="url(#b)"/><path d="M8.17 36.23C7.746 23.143 19.08 12.3 32.135 13.314c25.545 1.982 69.618 4.52 127.865 4.52 58.763 0 103.099-2.583 128.538-4.573 12.829-1.003 23.924 9.443 23.502 22.304-.529 16.142-1.08 38.463-1.08 61.435 0 23.39.571 46.105 1.109 62.311.417 12.556-10.181 22.851-22.724 22.157-25.456-1.407-70.363-3.276-129.345-3.276-58.496 0-103.148 1.838-128.712 3.241-12.768.701-23.572-9.972-23.148-22.752.467-14.08.9-34.47.9-61.681 0-26.63-.415-46.727-.87-60.77Z" fill="url(#c)"/><path d="M8.74 36.211c-.414-12.748 10.635-23.316 23.351-22.33 25.557 1.984 69.645 4.523 127.909 4.523 58.779 0 103.131-2.584 128.583-4.575 12.495-.977 23.298 9.201 22.888 21.717-.53 16.146-1.081 38.473-1.081 61.454 0 23.399.572 46.12 1.11 62.33.405 12.219-9.912 22.245-22.124 21.57-25.465-1.408-70.383-3.277-129.376-3.277-58.507 0-103.17 1.838-128.743 3.242-12.431.682-22.96-9.716-22.547-22.165.467-14.086.9-34.483.9-61.7 0-26.635-.415-46.74-.87-60.789Z" stroke="url(#d)" stroke-opacity=".64" stroke-width="1.139" style="mix-blend-mode:soft-light"/></g><defs><linearGradient id="b" x1="9.87" y1="12.393" x2="325.463" y2="150.833" gradientUnits="userSpaceOnUse"><stop stop-color="#FFDD28"/><stop offset=".527" stop-color="#FFE86F"/><stop offset="1" stop-color="#FFDD28"/></linearGradient><linearGradient id="c" x1="313" y1="11" x2="-6.229" y2="40.672" gradientUnits="userSpaceOnUse"><stop stop-color="#E8C25F"/><stop offset=".505" stop-color="#F2E191"/><stop offset="1" stop-color="#D3A647"/></linearGradient><radialGradient id="d" cx="0" cy="0" r="1" gradientUnits="userSpaceOnUse" gradientTransform="matrix(-152.99943 -85.87332 151.92174 -270.67708 313 183)"><stop stop-color="#fff"/><stop offset="1" stop-color="#D8AF53"/></radialGradient><filter id="a" x="-12.951" y=".946" width="346.111" height="210.466" filterUnits="userSpaceOnUse" color-interpolation-filters="sRGB"><feFlood flood-opacity="0" result="BackgroundImageFix"/><feColorMatrix in="SourceAlpha" values="0 0 0 0 0 0 0 0 0 0 0 0 0 0 0 0 0 0 127 0" result="hardAlpha"/><feOffset dy="8.83"/><feGaussianBlur stdDeviation="10.54"/><feComposite in2="hardAlpha" operator="out"/><feColorMatrix values="0 0 0 0 0 0 0 0 0 0 0 0 0 0 0 0 0 0 0.77 0"/><feBlend in2="BackgroundImageFix" result="effect1_dropShadow_228_991"/><feBlend in="SourceGraphic" in2="effect1_dropShadow_228_991" result="shape"/></filter></defs></svg>