<svg width="346" height="524" fill="none" xmlns="http://www.w3.org/2000/svg"><path d="M0 0s64.92 11.072 173 11.072S346 0 346 0s-2.307 67.71-2.307 139.329C343.693 210.949 346 524 346 524s-66.028-7.789-173-7.789S0 524 0 524s2.307-288.972 2.307-384.671C2.307 43.63 0 0 0 0Z" fill="url(#a)"/><path d="M0 0s64.92 11.072 173 11.072S346 0 346 0s-2.307 67.71-2.307 139.329C343.693 210.949 346 524 346 524s-66.028-7.789-173-7.789S0 524 0 524s2.307-288.972 2.307-384.671C2.307 43.63 0 0 0 0Z" fill="url(#b)"/><path d="m344.96 1.183-.059 1.835c-.063 1.992-.153 4.917-.261 8.652a4702.33 4702.33 0 0 0-.793 31.115c-.577 25.884-1.154 60.725-1.154 96.544 0 35.815.577 131.986 1.154 219.2a229000.303 229000.303 0 0 0 1.127 161.945l.018 2.406c-.488-.054-1.134-.125-1.933-.209-2.018-.214-5.02-.518-8.955-.884-7.87-.731-19.476-1.705-34.425-2.679-29.897-1.949-73.169-3.897-126.679-3.897-53.51 0-96.782 1.948-126.68 3.897-14.948.974-26.554 1.948-34.424 2.679-3.935.366-6.937.67-8.955.884-.8.084-1.444.155-1.932.209l.017-2.141a93887.437 93887.437 0 0 0 .334-43.379c.217-28.586.505-67.698.793-109.801.577-84.205 1.154-180.376 1.154-228.23 0-47.857-.577-82.698-1.154-105.577A1910.747 1910.747 0 0 0 1.36 8.274a906.689 906.689 0 0 0-.3-7.088c.466.074 1.063.168 1.79.278 1.992.304 4.956.737 8.85 1.257 7.788 1.04 19.293 2.425 34.177 3.81C75.645 9.303 118.926 12.073 173 12.073s97.355-2.77 127.123-5.54c14.884-1.386 26.389-2.771 34.177-3.81 3.894-.52 6.858-.954 8.85-1.258a280.92 280.92 0 0 0 1.81-.281Z" stroke="url(#c)" stroke-opacity=".64" stroke-width="2" style="mix-blend-mode:soft-light"/><defs><linearGradient id="a" x1="3.245" y1="2.257" x2="392.293" y2="121.367" gradientUnits="userSpaceOnUse"><stop stop-color="#FFDD28"/><stop offset=".527" stop-color="#FFE86F"/><stop offset="1" stop-color="#FFDD28"/></linearGradient><linearGradient id="b" x1="346" y1="0" x2="-16.551" y2="23.519" gradientUnits="userSpaceOnUse"><stop stop-color="#E8C25F"/><stop offset=".505" stop-color="#F2E191"/><stop offset="1" stop-color="#D3A647"/></linearGradient><radialGradient id="c" cx="0" cy="0" r="1" gradientUnits="userSpaceOnUse" gradientTransform="matrix(-172.99924 -139.12479 281.62303 -350.1933 346 278.659)"><stop stop-color="#fff"/><stop offset="1" stop-color="#D8AF53"/></radialGradient></defs></svg>