<svg width="120" height="123" fill="none" xmlns="http://www.w3.org/2000/svg"><rect x=".5" width="119" height="123" rx="59.5" fill="url(#a)"/><path d="M55.343 87.453a1.538 1.538 0 0 1-2.245.115L28.508 64.21a1.644 1.644 0 0 1-.064-2.31l7.834-8.31a1.63 1.63 0 0 1 2.302-.063l13.433 12.76a1.54 1.54 0 0 0 2.245-.116L80.5 35.566a1.628 1.628 0 0 1 2.296-.172l8.639 7.462c.678.586.756 1.624.172 2.305L55.342 87.453Z" fill="#fff"/><defs><linearGradient id="a" x1="119.5" y1="0" x2=".5" y2="123" gradientUnits="userSpaceOnUse"><stop stop-color="#E8C25F"/><stop offset=".52" stop-color="#F2E191"/><stop offset="1" stop-color="#D3A647"/></linearGradient></defs></svg>