<svg width="32" height="32" fill="none" xmlns="http://www.w3.org/2000/svg"><g clip-path="url(#a)"><circle cx="16" cy="16" r="15" fill="#fff"/><path d="M27.314 4.686A15.895 15.895 0 0 0 16 0 15.895 15.895 0 0 0 4.686 4.686 15.895 15.895 0 0 0 0 16c0 4.274 1.664 8.292 4.686 11.314A15.895 15.895 0 0 0 16 32c4.274 0 8.292-1.664 11.314-4.686A15.895 15.895 0 0 0 32 16c0-4.274-1.664-8.292-4.686-11.314ZM16 30.125c-4.18 0-7.94-1.825-10.528-4.72 1.604-4.254 5.712-7.28 10.528-7.28a5.625 5.625 0 1 1 0-11.25 5.625 5.625 0 0 1 0 11.25c4.816 0 8.924 3.026 10.528 7.28A14.093 14.093 0 0 1 16 30.126Z" fill="#000"/></g><defs><clipPath id="a"><path fill="#fff" d="M0 0h32v32H0z"/></clipPath></defs></svg>