<svg width="415" height="429" viewBox="0 0 415 429" fill="none" xmlns="http://www.w3.org/2000/svg">
<path fill-rule="evenodd" clip-rule="evenodd" d="M331.364 139.608C306.419 96.2758 260.84 69.7859 208.737 69.7859C129.861 69.7859 68.3589 132.486 68.3589 214.5C68.3589 296.514 129.861 365.523 208.737 365.523C260.84 365.523 306.419 333.986 331.364 290.654H402.858C373.312 371.522 296.875 429 208.737 429C94.8037 429 0 332.965 0 214.5C0 96.0347 94.8037 0 208.737 0C296.875 0 373.312 58.7404 402.858 139.608L331.364 139.608ZM410.294 189.265V242.259H275.875C265.35 270.31 239.005 290.206 208.147 290.206C168.03 290.206 135.509 256.594 135.509 215.131C135.509 173.668 168.03 140.056 208.147 140.056C239.469 140.056 266.158 160.547 276.356 189.265H410.294Z" fill="url(#paint0_radial_228_378)"/>
<path d="M349.682 214.5C349.682 296.814 285.33 364.65 207.478 364.65C201.965 364.65 196.519 365.289 191.16 364.65V428.346C196.544 428.779 201.986 429 207.478 429C326.37 429 417.287 331.283 414.956 214.5C414.956 206.444 414.527 198.492 413.69 190.667H347.85C349.055 198.416 349.682 206.376 349.682 214.5Z" fill="url(#paint1_radial_228_378)"/>
<defs>
<radialGradient id="paint0_radial_228_378" cx="0" cy="0" r="1" gradientUnits="userSpaceOnUse" gradientTransform="translate(207.5 214.5) rotate(-180) scale(207.5 214.5)">
<stop stop-color="#F2E191"/>
<stop offset="1" stop-color="#E8C25F"/>
</radialGradient>
<radialGradient id="paint1_radial_228_378" cx="0" cy="0" r="1" gradientUnits="userSpaceOnUse" gradientTransform="translate(207.5 214.5) rotate(-180) scale(207.5 214.5)">
<stop stop-color="#F2E191"/>
<stop offset="1" stop-color="#E8C25F"/>
</radialGradient>
</defs>
</svg>
