<svg width="120" height="123" viewBox="0 0 120 123" fill="none" xmlns="http://www.w3.org/2000/svg">
<path fill-rule="evenodd" clip-rule="evenodd" d="M95.5177 40.0274C88.3646 27.6035 75.2951 20.0085 60.3548 20.0085C37.7371 20.0085 20.1017 37.9854 20.1017 61.5C20.1017 85.0146 37.7371 104.8 60.3548 104.8C75.2951 104.8 88.3646 95.7584 95.5177 83.3345H116.018C107.546 106.52 85.6281 123 60.3548 123C27.6847 123 0.5 95.4656 0.5 61.5C0.5 27.5344 27.6847 0 60.3548 0C85.6281 0 107.546 16.8417 116.018 40.0274L95.5177 40.0274ZM118.15 54.2649V69.4589H79.6064C76.5884 77.5014 69.0338 83.206 60.1854 83.206C48.682 83.206 39.3568 73.5689 39.3568 61.681C39.3568 49.793 48.682 40.156 60.1854 40.156C69.167 40.156 76.8201 46.0308 79.7444 54.2649H118.15Z" fill="url(#paint0_linear_236_2216)"/>
<path d="M100.77 61.5C100.77 85.1006 82.3174 104.55 59.9937 104.55C58.4128 104.55 56.8513 104.733 55.3144 104.55V122.813C56.8584 122.937 58.4189 123 59.9937 123C94.0856 123 120.156 94.9833 119.487 61.5C119.487 59.1903 119.364 56.9103 119.124 54.6667H100.245C100.591 56.8884 100.77 59.1707 100.77 61.5Z" fill="url(#paint1_linear_236_2216)"/>
<defs>
<linearGradient id="paint0_linear_236_2216" x1="119.5" y1="7.01635e-05" x2="-5.39803" y2="6.31315" gradientUnits="userSpaceOnUse">
<stop stop-color="#E8C25F"/>
<stop offset="0.505208" stop-color="#F2E191"/>
<stop offset="1" stop-color="#D3A647"/>
</linearGradient>
<linearGradient id="paint1_linear_236_2216" x1="119.5" y1="7.01635e-05" x2="-5.39803" y2="6.31315" gradientUnits="userSpaceOnUse">
<stop stop-color="#E8C25F"/>
<stop offset="0.505208" stop-color="#F2E191"/>
<stop offset="1" stop-color="#D3A647"/>
</linearGradient>
</defs>
</svg>
