<svg width="120" height="123" viewBox="0 0 120 123" fill="none" xmlns="http://www.w3.org/2000/svg">
<rect x="0.5" width="119" height="123" rx="59.5" fill="url(#paint0_linear_236_2275)"/>
<path d="M55.3425 87.4531C54.7585 88.1344 53.7484 88.1864 53.0979 87.5685L28.5071 64.2092C27.8565 63.5913 27.8283 62.5517 28.4435 61.8988L36.2783 53.5898C36.8939 52.9369 37.9297 52.9085 38.5802 53.526L52.0132 66.2854C52.6637 66.9033 53.6738 66.8513 54.2579 66.17L80.5012 35.5663C81.0852 34.885 82.1189 34.8073 82.7973 35.3938L91.4357 42.8561C92.1145 43.4422 92.192 44.4796 91.6076 45.1609L55.3425 87.4531Z" fill="white"/>
<defs>
<linearGradient id="paint0_linear_236_2275" x1="119.5" y1="8.63683e-05" x2="0.50002" y2="123" gradientUnits="userSpaceOnUse">
<stop stop-color="#E8C25F"/>
<stop offset="0.51973" stop-color="#F2E191"/>
<stop offset="1" stop-color="#D3A647"/>
</linearGradient>
</defs>
</svg>
