<svg width="230" height="236" viewBox="0 0 230 236" fill="none" xmlns="http://www.w3.org/2000/svg">
<path fill-rule="evenodd" clip-rule="evenodd" d="M183.098 76.7443C169.383 52.9241 144.325 38.3622 115.68 38.3622C72.3156 38.3622 38.5034 72.8292 38.5034 117.914C38.5034 162.998 72.3156 200.933 115.68 200.933C144.325 200.933 169.383 183.597 183.098 159.777H222.403C206.16 204.23 164.137 235.827 115.68 235.827C53.0422 235.827 0.921143 183.035 0.921143 117.914C0.921143 52.7916 53.0422 0 115.68 0C164.137 0 206.16 32.2904 222.403 76.7442L183.098 76.7443ZM226.492 104.042V133.173H152.591C146.805 148.593 132.321 159.53 115.356 159.53C93.3002 159.53 75.4211 141.053 75.4211 118.26C75.4211 95.4677 93.3002 76.9907 115.356 76.9907C132.576 76.9907 147.249 88.2546 152.856 104.042H226.492Z" fill="url(#paint0_linear_236_2922)"/>
<path d="M193.169 117.914C193.169 163.163 157.789 200.453 114.988 200.453C111.957 200.453 108.963 200.804 106.016 200.453V235.468C108.977 235.706 111.969 235.827 114.988 235.827C180.352 235.827 230.337 182.111 229.055 117.914C229.055 113.485 228.819 109.114 228.359 104.812H192.162C192.824 109.072 193.169 113.448 193.169 117.914Z" fill="url(#paint1_linear_236_2922)"/>
<defs>
<linearGradient id="paint0_linear_236_2922" x1="229.079" y1="0.000134524" x2="-10.3871" y2="12.1042" gradientUnits="userSpaceOnUse">
<stop stop-color="#E8C25F"/>
<stop offset="0.505208" stop-color="#F2E191"/>
<stop offset="1" stop-color="#D3A647"/>
</linearGradient>
<linearGradient id="paint1_linear_236_2922" x1="229.079" y1="0.000134524" x2="-10.3871" y2="12.1042" gradientUnits="userSpaceOnUse">
<stop stop-color="#E8C25F"/>
<stop offset="0.505208" stop-color="#F2E191"/>
<stop offset="1" stop-color="#D3A647"/>
</linearGradient>
</defs>
</svg>
