<svg width="346" height="524" viewBox="0 0 346 524" fill="none" xmlns="http://www.w3.org/2000/svg">
<path d="M0 0C0 0 64.92 11.072 173 11.072C281.08 11.072 346 0 346 0C346 0 343.693 67.7096 343.693 139.329C343.693 210.949 346 524 346 524C346 524 279.972 516.211 173 516.211C66.0283 516.211 0 524 0 524C0 524 2.30667 235.028 2.30667 139.329C2.30667 43.6305 0 0 0 0Z" fill="url(#paint0_linear_228_1081)"/>
<path d="M0 0C0 0 64.92 11.072 173 11.072C281.08 11.072 346 0 346 0C346 0 343.693 67.7096 343.693 139.329C343.693 210.949 346 524 346 524C346 524 279.972 516.211 173 516.211C66.0283 516.211 0 524 0 524C0 524 2.30667 235.028 2.30667 139.329C2.30667 43.6305 0 0 0 0Z" fill="url(#paint1_linear_228_1081)"/>
<path d="M344.96 1.1827C344.945 1.65983 344.925 2.27363 344.901 3.01762C344.838 5.00978 344.748 7.93536 344.64 11.6697C344.424 19.1385 344.135 29.8425 343.847 42.785C343.27 68.6694 342.693 103.51 342.693 139.329C342.693 175.144 343.27 271.315 343.847 358.529C344.135 402.137 344.423 443.506 344.64 473.974C344.748 489.208 344.838 501.716 344.901 510.416C344.932 514.766 344.957 518.164 344.974 520.474L344.992 522.88C344.504 522.826 343.858 522.755 343.059 522.671C341.041 522.457 338.039 522.153 334.104 521.787C326.234 521.056 314.628 520.082 299.679 519.108C269.782 517.159 226.51 515.211 173 515.211C119.49 515.211 76.2183 517.159 46.3206 519.108C31.3717 520.082 19.7661 521.056 11.8959 521.787C7.96075 522.153 4.95944 522.457 2.94094 522.671C2.14193 522.755 1.49691 522.826 1.00893 522.88L1.02587 520.739C1.04277 518.599 1.06755 515.448 1.09908 511.404C1.16216 503.316 1.25226 491.654 1.36039 477.36C1.57664 448.774 1.86497 409.662 2.15331 367.559C2.72997 283.354 3.30667 187.183 3.30667 139.329C3.30667 91.472 2.7299 56.6312 2.15302 33.7524C1.86457 22.313 1.5761 13.8641 1.35967 8.27388C1.25145 5.47875 1.16125 3.39829 1.09807 2.016C1.0838 1.70371 1.0709 1.42706 1.05949 1.18585C1.52552 1.26 2.12302 1.35353 2.84994 1.46433C4.84215 1.76799 7.80639 2.20137 11.7002 2.72121C19.4877 3.76088 30.9934 5.14641 45.8773 6.5317C75.6449 9.30227 118.926 12.072 173 12.072C227.074 12.072 270.355 9.30227 300.123 6.5317C315.007 5.14641 326.512 3.76088 334.3 2.72121C338.194 2.20137 341.158 1.76799 343.15 1.46433C343.887 1.35196 344.491 1.25735 344.96 1.1827Z" stroke="url(#paint2_radial_228_1081)" stroke-opacity="0.64" stroke-width="2" style="mix-blend-mode:soft-light"/>
<defs>
<linearGradient id="paint0_linear_228_1081" x1="3.24532" y1="2.25716" x2="392.293" y2="121.367" gradientUnits="userSpaceOnUse">
<stop stop-color="#FFDD28"/>
<stop offset="0.52741" stop-color="#FFE86F"/>
<stop offset="1" stop-color="#FFDD28"/>
</linearGradient>
<linearGradient id="paint1_linear_228_1081" x1="346" y1="0.000158957" x2="-16.551" y2="23.519" gradientUnits="userSpaceOnUse">
<stop stop-color="#E8C25F"/>
<stop offset="0.505208" stop-color="#F2E191"/>
<stop offset="1" stop-color="#D3A647"/>
</linearGradient>
<radialGradient id="paint2_radial_228_1081" cx="0" cy="0" r="1" gradientUnits="userSpaceOnUse" gradientTransform="translate(346 278.659) rotate(-141.194) scale(222.001 449.385)">
<stop stop-color="white"/>
<stop offset="1" stop-color="#D8AF53"/>
</radialGradient>
</defs>
</svg>
