<svg width="1193" height="665" viewBox="0 0 1193 665" fill="none" xmlns="http://www.w3.org/2000/svg">
<path d="M0.229643 81.5734C-1.35803 35.6285 38.4547 -2.3883 84.2794 1.29284C182.665 9.19625 359.553 19.8994 596 19.8994C834.396 19.8994 1012.25 9.01908 1110.14 1.09797C1155.17 -2.54591 1194.11 34.0898 1192.58 79.243C1190.41 143.392 1188 236.015 1188 331.5C1188 428.531 1190.49 522.607 1192.69 586.851C1194.2 630.93 1157.1 667.04 1113.07 664.525C1015.21 658.936 835.094 651.077 596 651.077C358.742 651.077 179.558 658.816 81.2024 664.396C36.3827 666.938 -1.46456 629.508 0.117331 584.644C2.07747 529.053 4 445.476 4 331.5C4 219.702 2.15024 137.152 0.229643 81.5734Z" fill="url(#paint0_linear_228_272)"/>
<path d="M0.229643 81.5734C-1.35803 35.6285 38.4547 -2.3883 84.2794 1.29284C182.665 9.19625 359.553 19.8994 596 19.8994C834.396 19.8994 1012.25 9.01908 1110.14 1.09797C1155.17 -2.54591 1194.11 34.0898 1192.58 79.243C1190.41 143.392 1188 236.015 1188 331.5C1188 428.531 1190.49 522.607 1192.69 586.851C1194.2 630.93 1157.1 667.04 1113.07 664.525C1015.21 658.936 835.094 651.077 596 651.077C358.742 651.077 179.558 658.816 81.2024 664.396C36.3827 666.938 -1.46456 629.508 0.117331 584.644C2.07747 529.053 4 445.476 4 331.5C4 219.702 2.15024 137.152 0.229643 81.5734Z" fill="url(#paint1_linear_228_272)"/>
<path d="M2.22845 81.5043C0.682076 36.7547 39.4853 -0.299068 84.1192 3.28641C182.552 11.1936 359.493 21.8994 596 21.8994C834.457 21.8994 1012.36 11.0163 1110.3 3.09146C1154.16 -0.457503 1192.07 35.2348 1190.58 79.1753C1188.41 143.337 1186 235.985 1186 331.5C1186 428.562 1188.49 522.663 1190.69 586.919C1192.16 629.817 1156.04 664.976 1113.18 662.528C1015.29 656.938 835.137 649.077 596 649.077C358.699 649.077 179.477 656.817 81.0892 662.399C37.4576 664.874 0.575217 628.415 2.11609 584.715C4.07709 529.099 6 445.499 6 331.5C6 219.679 4.14987 137.107 2.22845 81.5043Z" stroke="url(#paint2_radial_228_272)" stroke-opacity="0.64" stroke-width="4" style="mix-blend-mode:soft-light"/>
<defs>
<linearGradient id="paint0_linear_228_272" x1="7.25543" y1="-1.51625" x2="1246.34" y2="540.03" gradientUnits="userSpaceOnUse">
<stop stop-color="#FFDD28"/>
<stop offset="0.52741" stop-color="#FFE86F"/>
<stop offset="1" stop-color="#FFDD28"/>
</linearGradient>
<linearGradient id="paint1_linear_228_272" x1="1196" y1="-6.99961" x2="-55.9573" y2="108.938" gradientUnits="userSpaceOnUse">
<stop stop-color="#E8C25F"/>
<stop offset="0.505208" stop-color="#F2E191"/>
<stop offset="1" stop-color="#D3A647"/>
</linearGradient>
<radialGradient id="paint2_radial_228_272" cx="0" cy="0" r="1" gradientUnits="userSpaceOnUse" gradientTransform="translate(1196 670) rotate(-150.606) scale(688.654 1220.66)">
<stop stop-color="white"/>
<stop offset="1" stop-color="#D8AF53"/>
</radialGradient>
</defs>
</svg>
