<svg width="114" height="36" viewBox="0 0 114 36" fill="none" xmlns="http://www.w3.org/2000/svg">
<path fill-rule="evenodd" clip-rule="evenodd" d="M27.9464 11.7153C25.8425 8.07909 21.9986 5.85616 17.6044 5.85616C10.9521 5.85616 5.76521 11.1177 5.76521 18C5.76521 24.8823 10.9521 30.6733 17.6044 30.6733C21.9986 30.6733 25.8425 28.0268 27.9464 24.3906H33.9759C31.4841 31.1766 25.0377 36 17.6044 36C7.9955 36 0 27.9411 0 18C0 8.05886 7.9955 0 17.6044 0C25.0377 0 31.4841 4.92926 33.9759 11.7153L27.9464 11.7153ZM34.6031 15.8824V20.3294H23.2666C22.3789 22.6833 20.157 24.353 17.5545 24.353C14.1712 24.353 11.4285 21.5324 11.4285 18.053C11.4285 14.5735 14.1712 11.753 17.5545 11.753C20.1962 11.753 22.4471 13.4724 23.3072 15.8824H34.6031Z" fill="url(#paint0_linear_601_2)"/>
<path d="M29.4913 18C29.4913 24.9075 24.0639 30.6 17.4982 30.6C17.0332 30.6 16.5739 30.6536 16.1219 30.6V35.9451C16.576 35.9815 17.035 36 17.4982 36C27.5252 36 35.1929 27.8 34.9963 18C34.9963 17.324 34.9601 16.6567 34.8895 16H29.3368C29.4384 16.6503 29.4913 17.3182 29.4913 18Z" fill="url(#paint1_linear_601_2)"/>
<path d="M50.88 15.304C49.8773 15.304 48.992 15.1387 48.224 14.808C47.4667 14.4667 46.8267 14.0133 46.304 13.448C45.792 12.872 45.4027 12.2267 45.136 11.512C44.88 10.7867 44.752 10.0347 44.752 9.256V8.904C44.752 8.168 44.88 7.448 45.136 6.744C45.392 6.04 45.7653 5.40533 46.256 4.84C46.7573 4.27467 47.3707 3.82667 48.096 3.496C48.832 3.15467 49.6747 2.984 50.624 2.984C51.648 2.984 52.5547 3.176 53.344 3.56C54.1333 3.93333 54.768 4.46133 55.248 5.144C55.728 5.816 56.0107 6.6 56.096 7.496H53.808C53.7333 6.99467 53.5467 6.568 53.248 6.216C52.9493 5.85333 52.5707 5.576 52.112 5.384C51.664 5.192 51.168 5.096 50.624 5.096C50.08 5.096 49.584 5.192 49.136 5.384C48.6987 5.576 48.3253 5.848 48.016 6.2C47.7067 6.552 47.4667 6.97333 47.296 7.464C47.136 7.95467 47.056 8.49867 47.056 9.096C47.056 9.74667 47.1467 10.328 47.328 10.84C47.5093 11.352 47.7653 11.7893 48.096 12.152C48.4267 12.504 48.8267 12.776 49.296 12.968C49.7653 13.1493 50.2933 13.24 50.88 13.24C51.6587 13.24 52.3413 13.08 52.928 12.76C53.5147 12.4293 53.9413 12.0027 54.208 11.48L53.808 13.32V10.312H55.904V12.904C55.4027 13.6613 54.72 14.2533 53.856 14.68C52.992 15.096 52 15.304 50.88 15.304ZM50.512 10.76V9.064H56.88V10.76H50.512ZM58.7845 15V3.32H61.0565V15H58.7845ZM63.9713 15V3.24H66.2433V15H63.9713ZM71.1073 15L67.5233 9.912H70.0673L73.7633 15H71.1073ZM65.5713 11.096V9.256H68.5473C68.9633 9.256 69.3206 9.17067 69.6193 9C69.9286 8.82933 70.1686 8.58933 70.3393 8.28C70.5099 7.97067 70.5953 7.61867 70.5953 7.224C70.5953 6.81867 70.5099 6.46133 70.3393 6.152C70.1686 5.84267 69.9286 5.60267 69.6193 5.432C69.3206 5.26133 68.9633 5.176 68.5473 5.176H65.5713V3.24H68.3073C69.2459 3.24 70.0566 3.37867 70.7393 3.656C71.4326 3.93333 71.9659 4.35467 72.3393 4.92C72.7126 5.48533 72.8993 6.19467 72.8993 7.048V7.304C72.8993 8.168 72.7073 8.87733 72.3233 9.432C71.9499 9.98667 71.4219 10.4027 70.7393 10.68C70.0566 10.9573 69.2459 11.096 68.3073 11.096H65.5713ZM74.3349 15L78.3189 3.32H82.0309L86.1269 15H83.7909L80.3189 4.872L81.1349 5.224H79.1349L79.9669 4.872L76.6069 15H74.3349ZM77.1189 11.896L77.8389 9.976H82.5749L83.2789 11.896H77.1189ZM87.8619 15V3.32H90.1339V15H87.8619ZM89.8139 10.136V8.216L94.4859 8.2V10.12L89.8139 10.136ZM89.8139 5.24V3.32H94.7099V5.24H89.8139ZM96.815 15V3.32H99.087V15H96.815ZM98.767 10.136V8.216L103.439 8.2V10.12L98.767 10.136ZM98.767 5.24V3.32H103.663V5.24H98.767ZM105.768 15V3.32H107.992V15H105.768ZM107.672 15V13.08H112.968V15H107.672ZM107.672 10.024V8.104H112.552V10.024H107.672ZM107.672 5.24V3.32H112.84V5.24H107.672ZM45.44 31V19.32H47.712V31H45.44ZM47.392 26.136V24.216L52.064 24.2V26.12L47.392 26.136ZM47.392 21.24V19.32H52.288V21.24H47.392ZM59.2091 31.304C58.1211 31.304 57.2038 31.096 56.4571 30.68C55.7105 30.264 55.1398 29.6827 54.7451 28.936C54.3611 28.1787 54.1691 27.2933 54.1691 26.28V19.32H56.4411V26.408C56.4411 26.9627 56.5478 27.4533 56.7611 27.88C56.9745 28.296 57.2838 28.6213 57.6891 28.856C58.1051 29.08 58.6118 29.192 59.2091 29.192C59.7958 29.192 60.2918 29.08 60.6971 28.856C61.1131 28.6213 61.4225 28.296 61.6251 27.88C61.8385 27.464 61.9451 26.9733 61.9451 26.408V19.32H64.2171V26.28C64.2171 27.2933 64.0251 28.1787 63.6411 28.936C63.2678 29.6827 62.7078 30.264 61.9611 30.68C61.2145 31.096 60.2971 31.304 59.2091 31.304ZM66.8775 31V19.32H70.6055L75.5175 29.112H76.0455L75.7255 29.4V19.32H77.8695V31H74.1255L69.2135 21.208H68.6695L68.9895 20.92V31H66.8775ZM82.7045 31.064V28.952H85.1205C85.7285 28.952 86.2672 28.8613 86.7365 28.68C87.2165 28.488 87.6218 28.2213 87.9525 27.88C88.2832 27.5387 88.5338 27.1387 88.7045 26.68C88.8858 26.2107 88.9765 25.6933 88.9765 25.128C88.9765 24.5413 88.8858 24.0187 88.7045 23.56C88.5338 23.0907 88.2832 22.6907 87.9525 22.36C87.6218 22.0293 87.2165 21.7787 86.7365 21.608C86.2672 21.4373 85.7285 21.352 85.1205 21.352H82.7045V19.24H84.9765C86.0325 19.24 86.9552 19.3947 87.7445 19.704C88.5338 20.0133 89.1898 20.44 89.7125 20.984C90.2352 21.5173 90.6245 22.1307 90.8805 22.824C91.1472 23.5067 91.2805 24.216 91.2805 24.952V25.304C91.2805 26.008 91.1472 26.7013 90.8805 27.384C90.6245 28.0667 90.2352 28.6853 89.7125 29.24C89.1898 29.7947 88.5338 30.2373 87.7445 30.568C86.9552 30.8987 86.0325 31.064 84.9765 31.064H82.7045ZM80.7525 31.064V19.24H83.0245V31.064H80.7525Z" fill="white"/>
<defs>
<linearGradient id="paint0_linear_601_2" x1="35" y1="2.05357e-05" x2="-1.7338" y2="1.86586" gradientUnits="userSpaceOnUse">
<stop stop-color="#E8C25F"/>
<stop offset="0.505208" stop-color="#F2E191"/>
<stop offset="1" stop-color="#D3A647"/>
</linearGradient>
<linearGradient id="paint1_linear_601_2" x1="35" y1="2.05357e-05" x2="-1.7338" y2="1.86586" gradientUnits="userSpaceOnUse">
<stop stop-color="#E8C25F"/>
<stop offset="0.505208" stop-color="#F2E191"/>
<stop offset="1" stop-color="#D3A647"/>
</linearGradient>
</defs>
</svg>
